<?xml version="1.0"?>
<svg version="1.1" xmlns="http://www.w3.org/2000/svg" xmlns:xlink="http://www.w3.org/1999/xlink" width="512.001" height="512.001">
    <desc iVinci="yes" version="4.6" gridStep="20" showGrid="no" snapToGrid="no" codePlatform="0"/>
    <g id="Layer1" name="Layer 1" opacity="1">
        <g id="Shape1">
            <desc shapeID="1" type="0" basicInfo-basicType="0" basicInfo-roundedRectRadius="12" basicInfo-polygonSides="6" basicInfo-starPoints="5" bounding="rect(-256,-256,512,512)" text="" font-familyName="" font-pixelSize="20" font-bold="0" font-underline="0" font-alignment="1" strokeStyle="0" markerStart="0" markerEnd="0" shadowEnabled="0" shadowOffsetX="0" shadowOffsetY="2" shadowBlur="4" shadowOpacity="160" blurEnabled="0" blurRadius="4" transform="matrix(0.858398,0,0,0.858398,256,256)" pers-center="0,0" pers-size="0,0" pers-start="0,0" pers-end="0,0" locked="0" mesh="" flag=""/>
            <path id="shapePath1" d="M356.781,36.25 L155.219,36.25 C89.6183,36.25 36.25,89.6183 36.25,155.219 L36.25,356.785 C36.25,422.382 89.6183,475.75 155.219,475.75 L356.785,475.75 C422.382,475.75 475.75,422.382 475.75,356.785 L475.75,155.219 C475.75,89.6183 422.382,36.25 356.781,36.25 M452.417,356.785 C452.417,408.175 408.175,452.417 356.781,452.417 L155.219,452.417 C103.825,452.417 59.5827,408.175 59.5827,356.785 L59.5827,155.219 C59.5827,103.825 103.825,59.5827 155.219,59.5827 L356.785,59.5827 C408.175,59.5827 452.417,103.825 452.417,155.219 L452.417,356.785 M452.417,356.785 " style="stroke:none;fill-rule:nonzero;fill:#c19971;fill-opacity:1;"/>
        </g>
        <g id="Shape2">
            <desc shapeID="2" type="0" basicInfo-basicType="0" basicInfo-roundedRectRadius="12" basicInfo-polygonSides="6" basicInfo-starPoints="5" bounding="rect(-139.996,-139.996,279.992,279.992)" text="" font-familyName="" font-pixelSize="20" font-bold="0" font-underline="0" font-alignment="1" strokeStyle="0" markerStart="0" markerEnd="0" shadowEnabled="0" shadowOffsetX="0" shadowOffsetY="2" shadowBlur="4" shadowOpacity="160" blurEnabled="0" blurRadius="4" transform="matrix(0.858398,0,0,0.858398,256,256)" pers-center="0,0" pers-size="0,0" pers-start="0,0" pers-end="0,0" locked="0" mesh="" flag=""/>
            <path id="shapePath2" d="M256,135.828 C189.736,135.828 135.828,189.736 135.828,256 C135.828,322.264 189.736,376.172 256,376.172 C322.264,376.172 376.172,322.264 376.172,256 C376.172,189.736 322.264,135.828 256,135.828 M256,352.84 C203.946,352.84 159.16,308.057 159.16,256 C159.16,203.946 203.946,159.16 256,159.16 C308.057,159.16 352.84,203.946 352.84,256 C352.84,308.057 308.057,352.84 256,352.84 M256,352.84 " style="stroke:none;fill-rule:nonzero;fill:#c19971;fill-opacity:1;"/>
        </g>
        <g id="Shape3">
            <desc shapeID="3" type="0" basicInfo-basicType="0" basicInfo-roundedRectRadius="12" basicInfo-polygonSides="6" basicInfo-starPoints="5" bounding="rect(-41.3691,-41.3691,82.7383,82.7383)" text="" font-familyName="" font-pixelSize="20" font-bold="0" font-underline="0" font-alignment="1" strokeStyle="0" markerStart="0" markerEnd="0" shadowEnabled="0" shadowOffsetX="0" shadowOffsetY="2" shadowBlur="4" shadowOpacity="160" blurEnabled="0" blurRadius="4" transform="matrix(0.577039,0,0,0.577039,380.002,124.653)" pers-center="0,0" pers-size="0,0" pers-start="0,0" pers-end="0,0" locked="0" mesh="" flag=""/>
            <path id="shapePath3" d="M380.001,100.782 C366.837,100.782 356.13,111.491 356.13,124.652 C356.13,137.816 366.837,148.525 380.001,148.525 C393.164,148.525 403.873,137.816 403.873,124.652 C403.873,111.488 393.164,100.782 380.001,100.782 Z" style="stroke:none;fill-rule:evenodd;fill:#c19971;fill-opacity:1;"/>
        </g>
    </g>
</svg>
