<?xml version="1.0"?>
<svg version="1.1" xmlns="http://www.w3.org/2000/svg" xmlns:xlink="http://www.w3.org/1999/xlink" width="512" height="512">
    <desc iVinci="yes" version="4.6" gridStep="20" showGrid="no" snapToGrid="no" codePlatform="0"/>
    <g id="Layer1" name="Layer 1" opacity="1">
        <g id="Shape1">
            <desc shapeID="1" type="0" basicInfo-basicType="0" basicInfo-roundedRectRadius="12" basicInfo-polygonSides="6" basicInfo-starPoints="5" bounding="rect(-14.8663,-14.8649,29.7327,29.7299)" text="" font-familyName="" font-pixelSize="20" font-bold="0" font-underline="0" font-alignment="1" strokeStyle="0" markerStart="0" markerEnd="0" shadowEnabled="0" shadowOffsetX="0" shadowOffsetY="2" shadowBlur="4" shadowOpacity="160" blurEnabled="0" blurRadius="4" transform="matrix(16.7562,0,0,16.7562,255.973,256)" pers-center="0,0" pers-size="0,0" pers-start="0,0" pers-end="0,0" locked="0" mesh="" flag=""/>
            <path id="shapePath1" d="M407.262,505.08 C386.534,505.08 361.5,499.886 333.987,489.514 C273.614,466.742 207.963,421.768 149.082,362.887 C90.2002,304.005 45.2265,238.338 22.4548,177.948 C1.72733,123.072 1.67705,78.0308 22.2872,57.4207 C25.2698,54.438 28.3027,51.2544 31.4194,47.9869 C50.2366,28.2146 72.003,5.74443 99.6675,6.96764 C119.105,7.77194 137.922,19.8364 157.225,43.7979 C214.129,114.593 188.476,139.828 158.784,169.084 L153.522,174.279 C148.663,179.138 139.464,201.625 224.904,287.048 C252.819,314.947 276.58,335.356 295.565,347.706 C307.545,355.481 328.926,367.21 337.69,358.446 L342.968,353.118 C372.191,323.459 397.426,297.889 468.204,354.777 C492.182,374.046 504.23,392.864 505.034,412.318 C506.19,440.502 483.737,461.816 463.931,480.616 C460.681,483.716 457.497,486.715 454.548,489.664 C444.259,499.936 427.905,505.08 407.262,505.08 M97.6735,23.6569 C77.6666,23.6569 59.5699,42.6919 43.5677,59.5152 C40.3337,62.8999 37.2003,66.2009 34.1339,69.2673 C18.7852,84.5993 20.3603,124.948 38.1219,172.05 C60.0725,230.244 103.689,293.818 160.928,351.057 C218.168,408.296 281.724,451.896 339.902,473.847 C387.003,491.625 427.352,493.167 442.701,477.801 C445.768,474.751 449.035,471.635 452.386,468.451 C469.612,452.08 489.133,433.548 488.295,412.971 C487.708,398.846 477.42,383.648 457.698,367.813 C398.716,320.426 382.245,337.183 354.898,364.864 L349.536,370.276 C336.517,383.363 315.287,380.498 286.432,361.731 C266.493,348.761 241.794,327.598 213.057,298.878 C142.161,227.982 119.473,184.617 141.675,162.398 L147.021,157.103 C174.802,129.757 191.559,113.252 144.155,54.2705 C128.304,34.5819 113.106,24.2936 98.9805,23.6904 C98.5449,23.6736 98.0924,23.6569 97.6735,23.6569 Z" style="stroke:none;fill-rule:nonzero;fill:#c19971;fill-opacity:1;"/>
        </g>
        <g id="Shape2">
            <desc shapeID="2" type="0" basicInfo-basicType="0" basicInfo-roundedRectRadius="12" basicInfo-polygonSides="6" basicInfo-starPoints="5" bounding="rect(-3.82074,-3.73277,7.64148,7.46555)" text="" font-familyName="" font-pixelSize="20" font-bold="0" font-underline="0" font-alignment="1" strokeStyle="0" markerStart="0" markerEnd="0" shadowEnabled="0" shadowOffsetX="0" shadowOffsetY="2" shadowBlur="4" shadowOpacity="160" blurEnabled="0" blurRadius="4" transform="matrix(16.7562,0,0,16.7562,360.343,150.254)" pers-center="0,0" pers-size="0,0" pers-start="0,0" pers-end="0,0" locked="0" mesh="" flag=""/>
            <path id="shapePath2" d="M410.194,212.801 C409.138,212.801 408.083,212.6 407.044,212.181 C402.754,210.439 400.676,205.563 402.436,201.29 C413.093,175.016 406.994,145.073 386.953,125.015 C366.36,104.422 334.707,98.708 308.149,110.638 C303.976,112.532 298.966,110.689 297.073,106.466 C295.162,102.244 297.022,97.2838 301.245,95.3903 C334.104,80.5108 373.297,87.6657 398.8,113.185 C423.616,138.001 431.139,175.049 417.952,207.59 C416.645,210.807 413.495,212.801 410.194,212.801 Z" style="stroke:none;fill-rule:nonzero;fill:#c19971;fill-opacity:1;"/>
        </g>
        <g id="Shape3">
            <desc shapeID="3" type="0" basicInfo-basicType="0" basicInfo-roundedRectRadius="12" basicInfo-polygonSides="6" basicInfo-starPoints="5" bounding="rect(-7.22347,-7.04628,14.4469,14.0926)" text="" font-familyName="" font-pixelSize="20" font-bold="0" font-underline="0" font-alignment="1" strokeStyle="0" markerStart="0" markerEnd="0" shadowEnabled="0" shadowOffsetX="0" shadowOffsetY="2" shadowBlur="4" shadowOpacity="160" blurEnabled="0" blurRadius="4" transform="matrix(16.7562,0,0,16.7562,384.093,125.094)" pers-center="0,0" pers-size="0,0" pers-start="0,0" pers-end="0,0" locked="0" mesh="" flag=""/>
            <path id="shapePath3" d="M484.994,243.164 C483.938,243.164 482.883,242.962 481.844,242.544 C477.537,240.801 475.476,235.925 477.236,231.652 C500.108,175.234 487.088,110.974 444.042,67.9268 C399.839,23.7239 331.859,11.3243 274.887,37.0786 C270.665,38.9218 265.705,37.1121 263.795,32.8895 C261.901,28.6502 263.761,23.6904 267.984,21.7802 C331.272,-6.80598 406.776,6.9509 455.888,56.0634 C503.711,103.886 518.188,175.267 492.752,237.936 C491.445,241.186 488.295,243.164 484.994,243.164 Z" style="stroke:none;fill-rule:nonzero;fill:#c19971;fill-opacity:1;"/>
        </g>
    </g>
</svg>
