<?xml version="1.0"?>
<svg version="1.1" xmlns="http://www.w3.org/2000/svg" xmlns:xlink="http://www.w3.org/1999/xlink" width="512" height="512">
    <desc iVinci="yes" version="4.6" gridStep="20" showGrid="no" snapToGrid="no" codePlatform="0"/>
    <g id="Layer1" name="Layer 1" opacity="1">
        <g id="Shape1">
            <desc shapeID="1" type="0" basicInfo-basicType="0" basicInfo-roundedRectRadius="12" basicInfo-polygonSides="6" basicInfo-starPoints="5" bounding="rect(-158.916,-137.956,317.833,275.911)" text="" font-familyName="" font-pixelSize="20" font-bold="0" font-underline="0" font-alignment="1" strokeStyle="0" markerStart="0" markerEnd="0" shadowEnabled="0" shadowOffsetX="0" shadowOffsetY="2" shadowBlur="4" shadowOpacity="160" blurEnabled="0" blurRadius="4" transform="matrix(1.49245,0,0,1.49245,256,256)" pers-center="0,0" pers-size="0,0" pers-start="0,0" pers-end="0,0" locked="0" mesh="" flag=""/>
            <path id="shapePath1" d="M480.762,73.3295 C465.598,54.1366 439.23,50.1085 419.797,50.1085 C412.134,50.1085 404.268,50.7129 396.431,51.9218 C379.598,54.5023 306.173,81.8768 280.947,160.117 L276.573,173.709 L290.797,172.625 C296.043,172.222 300.936,171.992 305.464,171.992 C319.199,171.992 327.649,174.237 332.071,179.062 C336.857,184.29 338.556,194.034 337.26,208.835 C335.716,226.388 325.731,246.828 317.203,262.673 L316.436,264.103 C309.156,277.676 295.603,302.931 282.655,302.931 C278.579,302.931 274.022,300.255 269.091,294.989 C251.27,275.94 247.76,241.439 244.67,210.994 C243.615,200.597 242.618,190.785 241.102,181.807 L239.683,173.135 C236.623,154.298 233.15,132.947 227.252,114.424 C221.055,94.9625 206.553,70.1013 186.093,64.1256 C181.614,62.8122 176.722,62.1406 171.581,62.1406 C151.486,62.1406 132.926,72.1549 127.728,75.2145 C100.758,91.0553 78.0922,111.256 56.186,130.784 C45.233,140.549 33.9038,150.64 22.4328,159.79 L18.8256,162.667 L18.8256,173.938 L21.7896,176.768 C23.3342,178.246 24.7342,180.451 26.2117,182.792 C29.8369,188.518 34.8157,196.364 45.6449,197.928 C56.3204,199.51 66.6406,196.383 75.37,193.669 C80.8472,191.961 86.0171,190.349 90.0736,190.349 C93.0271,190.349 96.5195,190.934 100.615,197.822 C106.532,207.874 109.746,218.866 113.151,230.501 C114.811,236.169 116.49,241.876 118.475,247.555 C126.416,270.154 132.604,294.957 139.356,322.025 L141.821,332.029 C153.092,377.955 168.524,440.857 209.28,458.141 C215.141,460.626 221.893,461.891 229.374,461.891 C248.875,461.891 270.523,453.144 283.135,445.663 C329.31,418.327 362.689,378.895 386.707,347.471 C452.43,258.421 486.22,160.232 491.123,134.448 C495.84,108.042 492.436,88.0435 480.762,73.3295 M472.264,130.977 C467.794,154.544 434.252,250.768 371.369,335.962 C337.414,380.41 307.191,409.156 273.351,429.174 C261.984,435.917 243.981,442.727 229.373,442.727 C224.491,442.727 220.251,441.979 216.779,440.502 C184.868,426.968 170.758,369.466 160.457,327.483 L157.771,316.606 C151.104,289.893 144.803,264.657 136.583,241.225 C134.702,235.874 133.14,230.492 131.576,225.15 C127.988,212.902 124.295,200.231 117.141,188.097 C110.493,176.885 101.391,171.197 90.0915,171.197 C83.1083,171.197 76.2789,173.327 69.6807,175.389 C62.1514,177.74 55.398,180.013 48.4447,178.986 C46.603,178.717 45.4419,177.298 42.4495,172.568 C41.8734,171.667 41.2794,170.727 40.6467,169.767 C50.3446,161.748 59.8007,153.326 68.9897,145.125 C90.2064,126.21 112.153,106.653 137.504,91.7672 C146.069,86.7212 159.517,81.341 171.631,81.341 C174.951,81.341 178.01,81.7439 180.753,82.5498 C192.397,85.9556 204.013,104.525 209.029,120.264 C214.496,137.433 217.844,158.045 220.799,176.222 L222.228,184.989 C223.639,193.363 224.607,202.877 225.624,212.958 C229.029,246.415 232.884,284.33 255.119,308.108 C263.81,317.421 273.094,322.14 282.695,322.14 C307.125,322.131 322.922,292.694 333.377,273.203 L334.144,271.783 C344.12,253.232 354.565,231.45 356.407,210.53 C358.22,189.773 354.997,175.664 346.24,166.121 C335.45,154.332 318.799,152.826 305.495,152.826 C305.073,152.826 304.65,152.826 304.219,152.826 C330.049,93.6268 388.136,72.6295 399.36,70.9028 C406.141,69.867 413.21,69.3103 419.818,69.3103 C435.022,69.3103 455.326,72.0729 465.744,85.2616 C473.915,95.5535 475.976,110.124 472.264,130.977 Z" style="stroke:none;fill-rule:nonzero;fill:#c19971;fill-opacity:1;"/>
        </g>
    </g>
</svg>
