<?xml version="1.0"?>
<svg version="1.1" xmlns="http://www.w3.org/2000/svg" xmlns:xlink="http://www.w3.org/1999/xlink" width="512" height="240">
    <desc iVinci="yes" version="4.6" gridStep="20" showGrid="no" snapToGrid="no" codePlatform="0"/>
    <g id="Layer1" name="Layer 2" visibility="hidden" opacity="1">
        <g id="Shape1">
            <desc shapeID="1" type="0" basicInfo-basicType="1" basicInfo-roundedRectRadius="12" basicInfo-polygonSides="6" basicInfo-starPoints="5" bounding="rect(-256,-100.5,512,201)" text="" font-familyName="디자인하우스 OTF" font-pixelSize="86" font-bold="0" font-underline="0" font-alignment="1" strokeStyle="0" markerStart="0" markerEnd="0" shadowEnabled="0" shadowOffsetX="0" shadowOffsetY="2" shadowBlur="4" shadowOpacity="160" blurEnabled="0" blurRadius="4" transform="matrix(1,0,0,1.49751,256,149.5)" pers-center="0,0" pers-size="0,0" pers-start="0,0" pers-end="0,0" locked="0" mesh="" flag=""/>
            <path id="shapePath1" d="M0,-1 L512,-1 L512,300 L0,300 L0,-1 Z" style="stroke:none;fill-rule:evenodd;fill:#333338;fill-opacity:1;"/>
        </g>
    </g>
    <g id="Layer2" name="Layer 1" opacity="1">
        <g id="Shape2">
            <desc shapeID="2" type="0" basicInfo-basicType="0" basicInfo-roundedRectRadius="12" basicInfo-polygonSides="6" basicInfo-starPoints="5" bounding="rect(-112.101,-25.8431,224.202,51.6863)" text="75mm studio" font-familyName="디자인하우스 OTF" font-pixelSize="86" font-bold="0" font-underline="0" font-alignment="1" strokeStyle="0" markerStart="0" markerEnd="0" shadowEnabled="0" shadowOffsetX="0" shadowOffsetY="2" shadowBlur="4" shadowOpacity="160" blurEnabled="0" blurRadius="4" transform="matrix(1,0,0,1,257.574,78.1989)" pers-center="0,0" pers-size="0,0" pers-start="0,0" pers-end="0,0" locked="0" mesh="" flag=""/>
            <path id="shapePath2" d="M145.473,66.8898 L152.181,66.8898 L152.181,58.9778 L168.779,58.9778 L149.515,101.118 C151.923,102.15 154.159,103.01 156.481,104.042 C163.361,88.9918 170.241,74.0278 177.035,58.9778 L177.035,52.3558 L145.473,52.3558 L145.473,66.8898 M192.996,76.4358 L198.586,79.0158 C200.048,77.3818 202.456,76.2638 205.552,76.2638 C211.228,76.2638 215.958,79.5319 215.958,85.8099 C215.958,91.8298 211.83,95.8718 206.068,95.8718 C201.338,95.8718 197.382,93.2058 194.974,88.7338 L189.298,92.2598 C192.394,98.8818 198.844,102.838 206.412,102.838 C215.442,102.838 223.526,96.2158 223.526,85.8099 C223.526,76.5218 216.388,69.7278 207.186,69.7278 C204.95,69.7278 202.714,70.1578 201.596,70.5018 L204.348,59.0638 L220.172,59.0638 L220.172,52.3558 L198.844,52.3558 L192.996,76.4358 M253.345,93.8078 L253.345,74.5438 C253.517,70.3298 256.699,65.4278 261.429,65.4278 C265.557,65.4278 267.105,67.7498 267.105,72.4798 L267.105,93.8078 L274.845,93.8078 L274.845,74.5438 C275.017,70.3298 278.199,65.4278 282.929,65.4278 C287.057,65.4278 288.605,67.7498 288.605,72.4798 L288.605,93.8078 L296.345,93.8078 L296.345,71.5338 C296.345,61.9018 291.701,58.1178 284.735,58.1178 C279.403,58.1178 275.963,60.9558 273.641,64.5678 C271.921,60.0098 268.137,58.1178 263.235,58.1178 C258.333,58.1178 254.893,60.6118 252.571,63.8798 L252.399,59.0638 L239.671,59.0638 L239.671,65.6858 L245.605,65.6858 L245.605,93.8078 L253.345,93.8078 M326.675,93.8078 L326.675,74.5438 C326.847,70.3298 330.029,65.4278 334.759,65.4278 C338.887,65.4278 340.435,67.7498 340.435,72.4798 L340.435,93.8078 L348.175,93.8078 L348.175,74.5438 C348.347,70.3298 351.529,65.4278 356.259,65.4278 C360.387,65.4278 361.935,67.7498 361.935,72.4798 L361.935,93.8078 L369.675,93.8078 L369.675,71.5338 C369.675,61.9018 365.031,58.1178 358.065,58.1178 C352.733,58.1178 349.293,60.9558 346.971,64.5678 C345.251,60.0098 341.467,58.1178 336.565,58.1178 C331.663,58.1178 328.223,60.6118 325.901,63.8798 L325.729,59.0638 L313.001,59.0638 L313.001,65.6858 L318.935,65.6858 L318.935,93.8078 L326.675,93.8078 Z" style="stroke:none;fill-rule:evenodd;fill:#554331;fill-opacity:1;"/>
        </g>
        <g id="Shape3">
            <desc shapeID="3" type="0" basicInfo-basicType="0" basicInfo-roundedRectRadius="12" basicInfo-polygonSides="6" basicInfo-starPoints="5" bounding="rect(-145.747,-28.2511,291.494,56.502)" text="75mm studio" font-familyName="디자인하우스 OTF" font-pixelSize="86" font-bold="0" font-underline="0" font-alignment="1" strokeStyle="0" markerStart="0" markerEnd="0" shadowEnabled="0" shadowOffsetX="0" shadowOffsetY="2" shadowBlur="4" shadowOpacity="160" blurEnabled="0" blurRadius="4" transform="matrix(1,0,0,1,252.852,160.313)" pers-center="0,0" pers-size="0,0" pers-start="0,0" pers-end="0,0" locked="0" mesh="" flag=""/>
            <path id="shapePath3" d="M121.295,173.6 C126.713,174.976 128.433,175.234 128.519,177.47 C128.605,179.964 126.713,181.77 121.897,181.77 C117.597,181.77 113.297,180.222 110.287,178.072 L107.105,184.092 C109.599,186.07 114.587,188.478 122.069,188.478 C133.679,188.478 136.173,181.856 136.173,177.556 C136.173,169.558 130.411,168.354 123.875,166.806 C117.941,165.43 116.221,164.57 116.221,161.99 C116.221,159.324 118.543,157.948 122.413,157.948 C124.907,157.948 126.799,158.378 127.917,158.98 L127.917,163.28 L134.625,163.28 L134.625,155.282 C132.389,153.304 128.777,151.67 122.499,151.67 C114.157,151.67 108.653,155.626 108.653,162.076 C108.653,168.87 112.609,171.278 121.295,173.6 M156.51,159.324 L163.734,159.324 L163.734,176.524 C163.734,184.694 167.174,188.478 174.656,188.478 C177.494,188.478 180.333,187.876 182.139,186.844 C181.623,184.694 181.193,182.372 180.591,180.222 C179.558,180.91 177.666,181.426 176.032,181.426 C172.936,181.426 171.474,179.706 171.474,175.148 L171.474,159.324 L181.193,159.324 L181.193,152.702 L171.474,152.702 L171.474,140.92 L163.734,140.92 L163.734,152.702 L156.51,152.702 L156.51,159.324 M236.837,187.446 L236.837,152.702 L229.097,152.702 L229.097,172.138 C229.097,176.438 225.227,181.168 219.551,181.168 C215.251,181.168 212.757,179.448 212.671,174.288 L212.671,152.702 L205.017,152.702 L205.017,175.492 C205.017,185.038 211.123,188.478 218.605,188.478 C223.421,188.478 227.291,186.156 229.785,182.63 L229.957,187.446 L236.837,187.446 M283.965,132.062 L283.965,138.684 L289.985,138.684 L289.985,156.658 C287.147,153.046 282.675,151.756 278.203,151.756 C267.711,151.756 260.315,159.754 260.315,170.074 C260.315,180.91 267.625,188.478 278.289,188.478 C282.933,188.478 287.491,186.672 289.985,183.49 L290.329,187.446 L297.725,187.446 L297.725,132.062 L283.965,132.062 M290.329,170.074 C290.329,175.836 286.717,181.598 279.149,181.598 C272.785,181.598 268.055,176.954 268.055,169.988 C268.055,163.108 272.613,158.636 279.149,158.636 C286.717,158.636 290.329,163.968 290.329,170.074 M334.052,187.446 L334.052,152.702 L320.378,152.702 L320.378,159.324 L326.312,159.324 L326.312,187.446 L334.052,187.446 M324.42,141.006 C324.42,143.758 326.57,146.166 329.494,146.166 C332.59,146.166 334.654,143.93 334.654,141.006 C334.654,138.512 332.504,135.932 329.494,135.932 C326.398,135.932 324.42,137.91 324.42,141.006 M360.501,170.074 C360.501,180.05 368.585,188.564 379.507,188.564 C390.515,188.564 398.599,180.05 398.599,170.074 C398.599,160.098 390.515,151.756 379.507,151.756 C368.585,151.756 360.501,160.098 360.501,170.074 M368.241,170.074 C368.241,162.85 373.487,158.808 379.507,158.808 C385.527,158.808 390.773,162.85 390.773,170.074 C390.773,176.954 385.613,181.426 379.507,181.426 C373.057,181.426 368.241,176.954 368.241,170.074 Z" style="stroke:none;fill-rule:evenodd;fill:#554331;fill-opacity:1;"/>
        </g>
        <g id="Shape4">
            <desc shapeID="4" type="0" basicInfo-basicType="1" basicInfo-roundedRectRadius="12" basicInfo-polygonSides="6" basicInfo-starPoints="5" bounding="rect(-49.9995,-2.89215,99.9991,5.7843)" text="" font-familyName="Helvetica" font-pixelSize="20" font-bold="0" font-underline="0" font-alignment="1" strokeStyle="0" markerStart="0" markerEnd="0" shadowEnabled="0" shadowOffsetX="0" shadowOffsetY="2" shadowBlur="4" shadowOpacity="160" blurEnabled="0" blurRadius="4" transform="matrix(1.06485,0,0,0.581918,251.121,224.656)" pers-center="0,0" pers-size="0,0" pers-start="0,0" pers-end="0,0" locked="0" mesh="" flag=""/>
            <path id="shapePath4" d="M197.879,222.973 L304.363,222.973 L304.363,226.339 L197.879,226.339 L197.879,222.973 Z" style="stroke:none;fill-rule:evenodd;fill:#554331;fill-opacity:1;"/>
        </g>
        <g id="Shape5">
            <desc shapeID="5" type="0" basicInfo-basicType="1" basicInfo-roundedRectRadius="12" basicInfo-polygonSides="6" basicInfo-starPoints="5" bounding="rect(-49.9995,-2.89259,99.9991,5.78518)" text="" font-familyName="Helvetica" font-pixelSize="20" font-bold="0" font-underline="0" font-alignment="1" strokeStyle="0" markerStart="0" markerEnd="0" shadowEnabled="0" shadowOffsetX="0" shadowOffsetY="2" shadowBlur="4" shadowOpacity="160" blurEnabled="0" blurRadius="4" transform="matrix(1.06485,0,0,0.581918,251.121,17.9127)" pers-center="0,0" pers-size="0,0" pers-start="0,0" pers-end="0,0" locked="0" mesh="" flag=""/>
            <path id="shapePath5" d="M197.879,16.2295 L304.363,16.2295 L304.363,19.596 L197.879,19.596 L197.879,16.2295 Z" style="stroke:none;fill-rule:evenodd;fill:#554331;fill-opacity:1;"/>
        </g>
    </g>
    <g id="Layer3" name="Layer 3" opacity="1">
        <g id="Shape6">
            <desc shapeID="6" type="0" basicInfo-basicType="0" basicInfo-roundedRectRadius="12" basicInfo-polygonSides="6" basicInfo-starPoints="5" bounding="rect(-112.101,-25.8431,224.202,51.6863)" text="75mm studio" font-familyName="디자인하우스 OTF" font-pixelSize="86" font-bold="0" font-underline="0" font-alignment="1" strokeStyle="0" markerStart="0" markerEnd="0" shadowEnabled="0" shadowOffsetX="0" shadowOffsetY="2" shadowBlur="4" shadowOpacity="160" blurEnabled="0" blurRadius="4" transform="matrix(1,0,0,1,257.574,76.9148)" pers-center="0,0" pers-size="0,0" pers-start="0,0" pers-end="0,0" locked="0" mesh="" flag=""/>
            <path id="shapePath6" d="M145.473,65.6057 L152.181,65.6057 L152.181,57.6937 L168.779,57.6937 L149.515,99.8337 C151.923,100.866 154.159,101.726 156.481,102.758 C163.361,87.7077 170.241,72.7437 177.035,57.6937 L177.035,51.0717 L145.473,51.0717 L145.473,65.6057 M192.996,75.1517 L198.586,77.7317 C200.048,76.0977 202.456,74.9797 205.552,74.9797 C211.228,74.9797 215.958,78.2478 215.958,84.5258 C215.958,90.5457 211.83,94.5877 206.068,94.5877 C201.338,94.5877 197.382,91.9217 194.974,87.4497 L189.298,90.9757 C192.394,97.5977 198.844,101.554 206.412,101.554 C215.442,101.554 223.526,94.9317 223.526,84.5258 C223.526,75.2377 216.388,68.4437 207.186,68.4437 C204.95,68.4437 202.714,68.8737 201.596,69.2177 L204.348,57.7797 L220.172,57.7797 L220.172,51.0717 L198.844,51.0717 L192.996,75.1517 M253.345,92.5237 L253.345,73.2597 C253.517,69.0457 256.699,64.1437 261.429,64.1437 C265.557,64.1437 267.105,66.4657 267.105,71.1957 L267.105,92.5237 L274.845,92.5237 L274.845,73.2597 C275.017,69.0457 278.199,64.1437 282.929,64.1437 C287.057,64.1437 288.605,66.4657 288.605,71.1957 L288.605,92.5237 L296.345,92.5237 L296.345,70.2497 C296.345,60.6177 291.701,56.8337 284.735,56.8337 C279.403,56.8337 275.963,59.6717 273.641,63.2837 C271.921,58.7257 268.137,56.8337 263.235,56.8337 C258.333,56.8337 254.893,59.3277 252.571,62.5957 L252.399,57.7797 L239.671,57.7797 L239.671,64.4017 L245.605,64.4017 L245.605,92.5237 L253.345,92.5237 M326.675,92.5237 L326.675,73.2597 C326.847,69.0457 330.029,64.1437 334.759,64.1437 C338.887,64.1437 340.435,66.4657 340.435,71.1957 L340.435,92.5237 L348.175,92.5237 L348.175,73.2597 C348.347,69.0457 351.529,64.1437 356.259,64.1437 C360.387,64.1437 361.935,66.4657 361.935,71.1957 L361.935,92.5237 L369.675,92.5237 L369.675,70.2497 C369.675,60.6177 365.031,56.8337 358.065,56.8337 C352.733,56.8337 349.293,59.6717 346.971,63.2837 C345.251,58.7257 341.467,56.8337 336.565,56.8337 C331.663,56.8337 328.223,59.3277 325.901,62.5957 L325.729,57.7797 L313.001,57.7797 L313.001,64.4017 L318.935,64.4017 L318.935,92.5237 L326.675,92.5237 Z" style="stroke:none;fill-rule:evenodd;fill:url(#radialGradientFill6);fill-opacity:1;"/><defs><radialGradient id="radialGradientFill6" gradientUnits="userSpaceOnUse" cx="256" cy="81.2726" r="182.292" fx="264.044" fy="58.2887"><stop offset="0.113553" stop-color="#f8c48d" stop-opacity="1"/><stop offset="1" stop-color="#a7845f" stop-opacity="1"/></radialGradient></defs>
        </g>
        <g id="Shape7">
            <desc shapeID="7" type="0" basicInfo-basicType="0" basicInfo-roundedRectRadius="12" basicInfo-polygonSides="6" basicInfo-starPoints="5" bounding="rect(-145.747,-28.2511,291.494,56.502)" text="75mm studio" font-familyName="디자인하우스 OTF" font-pixelSize="86" font-bold="0" font-underline="0" font-alignment="1" strokeStyle="0" markerStart="0" markerEnd="0" shadowEnabled="0" shadowOffsetX="0" shadowOffsetY="2" shadowBlur="4" shadowOpacity="160" blurEnabled="0" blurRadius="4" transform="matrix(1,0,0,1,252.852,159.029)" pers-center="0,0" pers-size="0,0" pers-start="0,0" pers-end="0,0" locked="0" mesh="" flag=""/>
            <path id="shapePath7" d="M121.295,172.316 C126.713,173.692 128.433,173.95 128.519,176.186 C128.605,178.68 126.713,180.486 121.897,180.486 C117.597,180.486 113.297,178.938 110.287,176.788 L107.105,182.808 C109.599,184.786 114.587,187.194 122.069,187.194 C133.679,187.194 136.173,180.572 136.173,176.272 C136.173,168.274 130.411,167.07 123.875,165.522 C117.941,164.146 116.221,163.286 116.221,160.706 C116.221,158.04 118.543,156.664 122.413,156.664 C124.907,156.664 126.799,157.094 127.917,157.696 L127.917,161.996 L134.625,161.996 L134.625,153.998 C132.389,152.02 128.777,150.386 122.499,150.386 C114.157,150.386 108.653,154.342 108.653,160.792 C108.653,167.586 112.609,169.994 121.295,172.316 M156.51,158.04 L163.734,158.04 L163.734,175.24 C163.734,183.41 167.174,187.194 174.656,187.194 C177.494,187.194 180.333,186.592 182.139,185.56 C181.623,183.41 181.193,181.088 180.591,178.938 C179.558,179.626 177.666,180.142 176.032,180.142 C172.936,180.142 171.474,178.422 171.474,173.864 L171.474,158.04 L181.193,158.04 L181.193,151.418 L171.474,151.418 L171.474,139.636 L163.734,139.636 L163.734,151.418 L156.51,151.418 L156.51,158.04 M236.837,186.162 L236.837,151.418 L229.097,151.418 L229.097,170.854 C229.097,175.154 225.227,179.884 219.551,179.884 C215.251,179.884 212.757,178.164 212.671,173.004 L212.671,151.418 L205.017,151.418 L205.017,174.208 C205.017,183.754 211.123,187.194 218.605,187.194 C223.421,187.194 227.291,184.872 229.785,181.346 L229.957,186.162 L236.837,186.162 M283.965,130.778 L283.965,137.4 L289.985,137.4 L289.985,155.374 C287.147,151.762 282.675,150.472 278.203,150.472 C267.711,150.472 260.315,158.47 260.315,168.79 C260.315,179.626 267.625,187.194 278.289,187.194 C282.933,187.194 287.491,185.388 289.985,182.206 L290.329,186.162 L297.725,186.162 L297.725,130.778 L283.965,130.778 M290.329,168.79 C290.329,174.552 286.717,180.314 279.149,180.314 C272.785,180.314 268.055,175.67 268.055,168.704 C268.055,161.824 272.613,157.352 279.149,157.352 C286.717,157.352 290.329,162.684 290.329,168.79 M334.052,186.162 L334.052,151.418 L320.378,151.418 L320.378,158.04 L326.312,158.04 L326.312,186.162 L334.052,186.162 M324.42,139.722 C324.42,142.474 326.57,144.882 329.494,144.882 C332.59,144.882 334.654,142.646 334.654,139.722 C334.654,137.228 332.504,134.648 329.494,134.648 C326.398,134.648 324.42,136.626 324.42,139.722 M360.501,168.79 C360.501,178.766 368.585,187.28 379.507,187.28 C390.515,187.28 398.599,178.766 398.599,168.79 C398.599,158.814 390.515,150.472 379.507,150.472 C368.585,150.472 360.501,158.814 360.501,168.79 M368.241,168.79 C368.241,161.566 373.487,157.524 379.507,157.524 C385.527,157.524 390.773,161.566 390.773,168.79 C390.773,175.67 385.613,180.142 379.507,180.142 C373.057,180.142 368.241,175.67 368.241,168.79 Z" style="stroke:none;fill-rule:evenodd;fill:url(#radialGradientFill7);fill-opacity:1;"/><defs><radialGradient id="radialGradientFill7" gradientUnits="userSpaceOnUse" cx="256" cy="81.2726" r="182.292" fx="264.044" fy="58.2887"><stop offset="0.113553" stop-color="#f8c48d" stop-opacity="1"/><stop offset="1" stop-color="#a7845f" stop-opacity="1"/></radialGradient></defs>
        </g>
        <g id="Shape8">
            <desc shapeID="8" type="0" basicInfo-basicType="1" basicInfo-roundedRectRadius="12" basicInfo-polygonSides="6" basicInfo-starPoints="5" bounding="rect(-49.9995,-2.89215,99.9991,5.7843)" text="" font-familyName="Helvetica" font-pixelSize="20" font-bold="0" font-underline="0" font-alignment="1" strokeStyle="0" markerStart="0" markerEnd="0" shadowEnabled="0" shadowOffsetX="0" shadowOffsetY="2" shadowBlur="4" shadowOpacity="160" blurEnabled="0" blurRadius="4" transform="matrix(1.06485,0,0,0.581918,251.121,223.372)" pers-center="0,0" pers-size="0,0" pers-start="0,0" pers-end="0,0" locked="0" mesh="" flag=""/>
            <path id="shapePath8" d="M197.879,221.689 L304.363,221.689 L304.363,225.055 L197.879,225.055 L197.879,221.689 Z" style="stroke:none;fill-rule:evenodd;fill:url(#radialGradientFill8);fill-opacity:1;"/><defs><radialGradient id="radialGradientFill8" gradientUnits="userSpaceOnUse" cx="256" cy="81.2726" r="182.292" fx="264.044" fy="58.2887"><stop offset="0.113553" stop-color="#f8c48d" stop-opacity="1"/><stop offset="1" stop-color="#a7845f" stop-opacity="1"/></radialGradient></defs>
        </g>
        <g id="Shape9">
            <desc shapeID="9" type="0" basicInfo-basicType="1" basicInfo-roundedRectRadius="12" basicInfo-polygonSides="6" basicInfo-starPoints="5" bounding="rect(-49.9995,-2.89259,99.9991,5.78518)" text="" font-familyName="Helvetica" font-pixelSize="20" font-bold="0" font-underline="0" font-alignment="1" strokeStyle="0" markerStart="0" markerEnd="0" shadowEnabled="0" shadowOffsetX="0" shadowOffsetY="2" shadowBlur="4" shadowOpacity="160" blurEnabled="0" blurRadius="4" transform="matrix(1.06485,0,0,0.581918,251.121,16.6287)" pers-center="0,0" pers-size="0,0" pers-start="0,0" pers-end="0,0" locked="0" mesh="" flag=""/>
            <path id="shapePath9" d="M197.879,14.9454 L304.363,14.9454 L304.363,18.3119 L197.879,18.3119 L197.879,14.9454 Z" style="stroke:none;fill-rule:evenodd;fill:url(#radialGradientFill9);fill-opacity:1;"/><defs><radialGradient id="radialGradientFill9" gradientUnits="userSpaceOnUse" cx="256" cy="81.2726" r="182.292" fx="264.044" fy="58.2887"><stop offset="0.113553" stop-color="#f8c48d" stop-opacity="1"/><stop offset="1" stop-color="#a7845f" stop-opacity="1"/></radialGradient></defs>
        </g>
    </g>
</svg>
