<?xml version="1.0"?>
<svg version="1.1" xmlns="http://www.w3.org/2000/svg" xmlns:xlink="http://www.w3.org/1999/xlink" width="256" height="120">
    <desc iVinci="yes" version="4.6" gridStep="20" showGrid="no" snapToGrid="no" codePlatform="0"/>
    <g id="Layer1" name="Layer 3" opacity="1">
        <g id="Shape1">
            <desc shapeID="1" type="0" basicInfo-basicType="0" basicInfo-roundedRectRadius="12" basicInfo-polygonSides="6" basicInfo-starPoints="5" bounding="rect(-112.101,-25.8431,224.202,51.6863)" text="75mm studio" font-familyName="디자인하우스 OTF" font-pixelSize="86" font-bold="0" font-underline="0" font-alignment="1" strokeStyle="0" markerStart="0" markerEnd="0" shadowEnabled="0" shadowOffsetX="0" shadowOffsetY="2" shadowBlur="4" shadowOpacity="160" blurEnabled="0" blurRadius="4" transform="matrix(0.518061,0,0,0.518061,130.446,37.6791)" pers-center="0,0" pers-size="0,0" pers-start="0,0" pers-end="0,0" locked="0" mesh="" flag=""/>
            <path id="shapePath1" d="M72.3711,31.8203 L75.8463,31.8203 L75.8463,27.7214 L84.4451,27.7214 L74.4651,49.5525 C75.7126,50.0873 76.871,50.5328 78.0739,51.0675 C81.6382,43.2705 85.2025,35.5182 88.7222,27.7214 L88.7222,24.2908 L72.3711,24.2908 L72.3711,31.8203 M96.9909,36.7657 L99.8869,38.1023 C100.644,37.2558 101.892,36.6766 103.496,36.6766 C106.436,36.6766 108.887,38.3697 108.887,41.6221 C108.887,44.7408 106.748,46.8348 103.763,46.8348 C101.313,46.8348 99.2632,45.4536 98.0157,43.1369 L95.0751,44.9635 C96.6791,48.3941 100.021,50.4437 103.941,50.4437 C108.619,50.4437 112.807,47.013 112.807,41.6221 C112.807,36.8103 109.109,33.2906 104.342,33.2906 C103.184,33.2906 102.025,33.5133 101.446,33.6916 L102.872,27.766 L111.07,27.766 L111.07,24.2908 L100.021,24.2908 L96.9909,36.7657 M128.255,45.7655 L128.255,35.7856 C128.345,33.6025 129.993,31.0629 132.443,31.0629 C134.582,31.0629 135.384,32.2659 135.384,34.7163 L135.384,45.7655 L139.394,45.7655 L139.394,35.7856 C139.483,33.6025 141.131,31.0629 143.582,31.0629 C145.72,31.0629 146.522,32.2659 146.522,34.7163 L146.522,45.7655 L150.532,45.7655 L150.532,34.2262 C150.532,29.2362 148.126,27.2759 144.517,27.2759 C141.755,27.2759 139.973,28.7461 138.77,30.6174 C137.879,28.2561 135.919,27.2759 133.379,27.2759 C130.84,27.2759 129.057,28.5679 127.854,30.261 L127.765,27.766 L121.171,27.766 L121.171,31.1966 L124.246,31.1966 L124.246,45.7655 L128.255,45.7655 M166.245,45.7655 L166.245,35.7856 C166.334,33.6025 167.982,31.0629 170.433,31.0629 C172.571,31.0629 173.373,32.2659 173.373,34.7163 L173.373,45.7655 L177.383,45.7655 L177.383,35.7856 C177.472,33.6025 179.121,31.0629 181.571,31.0629 C183.71,31.0629 184.512,32.2659 184.512,34.7163 L184.512,45.7655 L188.521,45.7655 L188.521,34.2262 C188.521,29.2362 186.116,27.2759 182.507,27.2759 C179.744,27.2759 177.962,28.7461 176.759,30.6174 C175.868,28.2561 173.908,27.2759 171.368,27.2759 C168.829,27.2759 167.047,28.5679 165.844,30.261 L165.755,27.766 L159.161,27.766 L159.161,31.1966 L162.235,31.1966 L162.235,45.7655 L166.245,45.7655 Z" style="stroke:none;fill-rule:evenodd;fill:url(#radialGradientFill1);fill-opacity:1;"/><defs><radialGradient id="radialGradientFill1" gradientUnits="userSpaceOnUse" cx="129.631" cy="39.9367" r="105.046" fx="133.798" fy="28.0297"><stop offset="0.113553" stop-color="#e5b582" stop-opacity="1"/><stop offset="1" stop-color="#a7845f" stop-opacity="1"/></radialGradient></defs>
        </g>
        <g id="Shape2">
            <desc shapeID="2" type="0" basicInfo-basicType="0" basicInfo-roundedRectRadius="12" basicInfo-polygonSides="6" basicInfo-starPoints="5" bounding="rect(-145.747,-28.2511,291.494,56.502)" text="75mm studio" font-familyName="디자인하우스 OTF" font-pixelSize="86" font-bold="0" font-underline="0" font-alignment="1" strokeStyle="0" markerStart="0" markerEnd="0" shadowEnabled="0" shadowOffsetX="0" shadowOffsetY="2" shadowBlur="4" shadowOpacity="160" blurEnabled="0" blurRadius="4" transform="matrix(0.518061,0,0,0.518061,128,80.2194)" pers-center="0,0" pers-size="0,0" pers-start="0,0" pers-end="0,0" locked="0" mesh="" flag=""/>
            <path id="shapePath2" d="M59.8454,87.1028 C62.6523,87.8156 63.5433,87.9493 63.5879,89.1077 C63.6324,90.3997 62.6523,91.3353 60.1573,91.3353 C57.9296,91.3353 55.702,90.5334 54.1426,89.4196 L52.4941,92.5383 C53.7862,93.563 56.3703,94.8105 60.2464,94.8105 C66.2611,94.8105 67.5531,91.3799 67.5531,89.1522 C67.5531,85.0088 64.5681,84.385 61.182,83.5831 C58.1078,82.8702 57.2168,82.4247 57.2168,81.0881 C57.2168,79.7069 58.4197,78.9941 60.4246,78.9941 C61.7167,78.9941 62.6968,79.2169 63.276,79.5287 L63.276,81.7564 L66.7512,81.7564 L66.7512,77.6129 C65.5928,76.5882 63.7215,75.7417 60.4692,75.7417 C56.1475,75.7417 53.2961,77.7912 53.2961,81.1327 C53.2961,84.6524 55.3455,85.8998 59.8454,87.1028 M78.0889,79.7069 L81.8314,79.7069 L81.8314,88.6176 C81.8314,92.8502 83.6135,94.8105 87.4897,94.8105 C88.9599,94.8105 90.4307,94.4986 91.3663,93.964 C91.099,92.8502 90.8762,91.6472 90.5644,90.5334 C90.0292,90.8898 89.049,91.1571 88.2025,91.1571 C86.5986,91.1571 85.8412,90.2661 85.8412,87.9047 L85.8412,79.7069 L90.8762,79.7069 L90.8762,76.2763 L85.8412,76.2763 L85.8412,70.1725 L81.8314,70.1725 L81.8314,76.2763 L78.0889,76.2763 L78.0889,79.7069 M119.703,94.2759 L119.703,76.2763 L115.693,76.2763 L115.693,86.3454 C115.693,88.5731 113.689,91.0235 110.748,91.0235 C108.52,91.0235 107.228,90.1324 107.184,87.4592 L107.184,76.2763 L103.219,76.2763 L103.219,88.083 C103.219,93.0284 106.382,94.8105 110.258,94.8105 C112.753,94.8105 114.758,93.6076 116.05,91.7809 L116.139,94.2759 L119.703,94.2759 M144.118,65.5836 L144.118,69.0142 L147.237,69.0142 L147.237,78.3258 C145.767,76.4546 143.45,75.7863 141.133,75.7863 C135.698,75.7863 131.866,79.9297 131.866,85.2761 C131.866,90.8898 135.653,94.8105 141.178,94.8105 C143.584,94.8105 145.945,93.8749 147.237,92.2264 L147.415,94.2759 L151.247,94.2759 L151.247,65.5836 L144.118,65.5836 M147.415,85.2761 C147.415,88.2612 145.544,91.2462 141.623,91.2462 C138.327,91.2462 135.876,88.8404 135.876,85.2315 C135.876,81.6673 138.237,79.3505 141.623,79.3505 C145.544,79.3505 147.415,82.1128 147.415,85.2761 M170.067,94.2759 L170.067,76.2763 L162.983,76.2763 L162.983,79.7069 L166.057,79.7069 L166.057,94.2759 L170.067,94.2759 M165.077,70.2171 C165.077,71.6428 166.19,72.8903 167.705,72.8903 C169.309,72.8903 170.378,71.7319 170.378,70.2171 C170.378,68.9251 169.265,67.5885 167.705,67.5885 C166.101,67.5885 165.077,68.6132 165.077,70.2171 M183.769,85.2761 C183.769,90.4443 187.957,94.8551 193.615,94.8551 C199.318,94.8551 203.506,90.4443 203.506,85.2761 C203.506,80.1079 199.318,75.7863 193.615,75.7863 C187.957,75.7863 183.769,80.1079 183.769,85.2761 M187.779,85.2761 C187.779,81.5336 190.496,79.4396 193.615,79.4396 C196.734,79.4396 199.452,81.5336 199.452,85.2761 C199.452,88.8404 196.778,91.1571 193.615,91.1571 C190.274,91.1571 187.779,88.8404 187.779,85.2761 Z" style="stroke:none;fill-rule:evenodd;fill:url(#radialGradientFill2);fill-opacity:1;"/><defs><radialGradient id="radialGradientFill2" gradientUnits="userSpaceOnUse" cx="129.631" cy="39.9368" r="105.046" fx="133.798" fy="28.0297"><stop offset="0.113553" stop-color="#e5b582" stop-opacity="1"/><stop offset="1" stop-color="#a7845f" stop-opacity="1"/></radialGradient></defs>
        </g>
        <g id="Shape3">
            <desc shapeID="3" type="0" basicInfo-basicType="1" basicInfo-roundedRectRadius="12" basicInfo-polygonSides="6" basicInfo-starPoints="5" bounding="rect(-49.9995,-2.89215,99.9991,5.7843)" text="" font-familyName="Helvetica" font-pixelSize="20" font-bold="0" font-underline="0" font-alignment="1" strokeStyle="0" markerStart="0" markerEnd="0" shadowEnabled="0" shadowOffsetX="0" shadowOffsetY="2" shadowBlur="4" shadowOpacity="160" blurEnabled="0" blurRadius="4" transform="matrix(0.551657,0,0,0.301469,127.103,113.553)" pers-center="0,0" pers-size="0,0" pers-start="0,0" pers-end="0,0" locked="0" mesh="" flag=""/>
            <path id="shapePath3" d="M99.5206,112.681 L154.686,112.681 L154.686,114.425 L99.5206,114.425 L99.5206,112.681 Z" style="stroke:none;fill-rule:evenodd;fill:url(#radialGradientFill3);fill-opacity:1;"/><defs><radialGradient id="radialGradientFill3" gradientUnits="userSpaceOnUse" cx="129.631" cy="39.9367" r="105.046" fx="133.798" fy="28.0297"><stop offset="0.113553" stop-color="#e5b582" stop-opacity="1"/><stop offset="1" stop-color="#a7845f" stop-opacity="1"/></radialGradient></defs>
        </g>
        <g id="Shape4">
            <desc shapeID="4" type="0" basicInfo-basicType="1" basicInfo-roundedRectRadius="12" basicInfo-polygonSides="6" basicInfo-starPoints="5" bounding="rect(-49.9995,-2.89259,99.9991,5.78518)" text="" font-familyName="Helvetica" font-pixelSize="20" font-bold="0" font-underline="0" font-alignment="1" strokeStyle="0" markerStart="0" markerEnd="0" shadowEnabled="0" shadowOffsetX="0" shadowOffsetY="2" shadowBlur="4" shadowOpacity="160" blurEnabled="0" blurRadius="4" transform="matrix(0.551657,0,0,0.301469,127.103,6.44722)" pers-center="0,0" pers-size="0,0" pers-start="0,0" pers-end="0,0" locked="0" mesh="" flag=""/>
            <path id="shapePath4" d="M99.5206,5.57519 L154.686,5.57519 L154.686,7.31924 L99.5206,7.31924 L99.5206,5.57519 Z" style="stroke:none;fill-rule:evenodd;fill:url(#radialGradientFill4);fill-opacity:1;"/><defs><radialGradient id="radialGradientFill4" gradientUnits="userSpaceOnUse" cx="129.631" cy="39.9367" r="105.046" fx="133.798" fy="28.0296"><stop offset="0.113553" stop-color="#e5b582" stop-opacity="1"/><stop offset="1" stop-color="#a7845f" stop-opacity="1"/></radialGradient></defs>
        </g>
    </g>
</svg>
