<?xml version="1.0"?>
<svg version="1.1" xmlns="http://www.w3.org/2000/svg" xmlns:xlink="http://www.w3.org/1999/xlink" width="150" height="25">
    <desc iVinci="yes" version="4.6" gridStep="20" showGrid="no" snapToGrid="no" codePlatform="0"/>
    <g id="Layer1" name="Layer 1" opacity="1">
        <g id="Shape1">
            <desc shapeID="1" type="0" basicInfo-basicType="0" basicInfo-roundedRectRadius="12" basicInfo-polygonSides="6" basicInfo-starPoints="5" bounding="rect(-218.049,-32.809,436.098,65.618)" text="75mm studio" font-familyName="디자인하우스 OTF" font-pixelSize="86" font-bold="0" font-underline="0" font-alignment="1" strokeStyle="0" markerStart="0" markerEnd="0" shadowEnabled="0" shadowOffsetX="0" shadowOffsetY="2" shadowBlur="4" shadowOpacity="160" blurEnabled="0" blurRadius="4" transform="matrix(0.334622,0,0,0.334622,75,12.5)" pers-center="0,0" pers-size="0,0" pers-start="0,0" pers-end="0,0" locked="0" mesh="" flag=""/>
            <path id="shapePath1" d="M2.03597,11.0467 L4.28062,11.0467 L4.28062,8.3992 L9.83467,8.3992 L3.38851,22.5002 C4.19429,22.8455 4.9425,23.1333 5.7195,23.4786 C8.02169,18.4426 10.3239,13.4353 12.5973,8.3992 L12.5973,6.18334 L2.03597,6.18334 L2.03597,11.0467 M15.6153,14.241 L17.4859,15.1044 C17.9751,14.5576 18.7809,14.1835 19.8169,14.1835 C21.7161,14.1835 23.2989,15.277 23.2989,17.3778 C23.2989,19.3922 21.9176,20.7448 19.9895,20.7448 C18.4068,20.7448 17.083,19.8527 16.2772,18.3562 L14.3779,19.5361 C15.4139,21.752 17.5722,23.0757 20.1046,23.0757 C23.1262,23.0757 25.8313,20.8599 25.8313,17.3778 C25.8313,14.2698 23.4428,11.9964 20.3636,11.9964 C19.6154,11.9964 18.8672,12.1403 18.4931,12.2554 L19.414,8.42798 L24.709,8.42798 L24.709,6.18334 L17.5722,6.18334 L15.6153,14.241 M32.2728,20.0541 L32.2728,13.6079 C32.3303,12.1978 33.3951,10.5575 34.9779,10.5575 C36.3592,10.5575 36.8772,11.3345 36.8772,12.9173 L36.8772,20.0541 L39.4671,20.0541 L39.4671,13.6079 C39.5247,12.1978 40.5895,10.5575 42.1722,10.5575 C43.5536,10.5575 44.0715,11.3345 44.0715,12.9173 L44.0715,20.0541 L46.6615,20.0541 L46.6615,12.6007 C46.6615,9.37764 45.1075,8.11143 42.7766,8.11143 C40.9924,8.11143 39.8413,9.06109 39.0643,10.2697 C38.4887,8.74453 37.2225,8.11143 35.5822,8.11143 C33.9419,8.11143 32.7908,8.94598 32.0138,10.0395 L31.9562,8.42798 L27.6971,8.42798 L27.6971,10.6438 L29.6828,10.6438 L29.6828,20.0541 L32.2728,20.0541 M53.3904,20.0541 L53.3904,13.6079 C53.448,12.1978 54.5128,10.5575 56.0955,10.5575 C57.4768,10.5575 57.9948,11.3345 57.9948,12.9173 L57.9948,20.0541 L60.5848,20.0541 L60.5848,13.6079 C60.6424,12.1978 61.7071,10.5575 63.2899,10.5575 C64.6712,10.5575 65.1892,11.3345 65.1892,12.9173 L65.1892,20.0541 L67.7792,20.0541 L67.7792,12.6007 C67.7792,9.37764 66.2252,8.11143 63.8942,8.11143 C62.11,8.11143 60.9589,9.06109 60.1819,10.2697 C59.6064,8.74453 58.3402,8.11143 56.6999,8.11143 C55.0595,8.11143 53.9084,8.94598 53.1314,10.0395 L53.0739,8.42798 L48.8148,8.42798 L48.8148,10.6438 L50.8005,10.6438 L50.8005,20.0541 L53.3904,20.0541 M82.7381,15.4209 C84.5511,15.8814 85.1267,15.9677 85.1554,16.7159 C85.1842,17.5505 84.5511,18.1548 82.9396,18.1548 C81.5007,18.1548 80.0618,17.6368 79.0546,16.9173 L77.9899,18.9318 C78.8244,19.5937 80.4935,20.3994 82.9971,20.3994 C86.8821,20.3994 87.7166,18.1836 87.7166,16.7447 C87.7166,14.0684 85.7886,13.6655 83.6015,13.1475 C81.6158,12.6871 81.0403,12.3993 81.0403,11.536 C81.0403,10.6438 81.8173,10.1834 83.1122,10.1834 C83.9468,10.1834 84.5799,10.3273 84.954,10.5287 L84.954,11.9676 L87.1987,11.9676 L87.1987,9.29131 C86.4504,8.62942 85.2418,8.08265 83.141,8.08265 C80.3496,8.08265 78.5079,9.40641 78.5079,11.5647 C78.5079,13.8382 79.8316,14.6439 82.7381,15.4209 M88.8386,10.6438 L91.2559,10.6438 L91.2559,16.3994 C91.2559,19.1332 92.407,20.3994 94.9107,20.3994 C95.8603,20.3994 96.81,20.198 97.4143,19.8527 C97.2417,19.1332 97.0978,18.3562 96.8963,17.6368 C96.551,17.867 95.9179,18.0397 95.3711,18.0397 C94.3351,18.0397 93.8459,17.4641 93.8459,15.9389 L93.8459,10.6438 L97.0978,10.6438 L97.0978,8.42798 L93.8459,8.42798 L93.8459,4.48546 L91.2559,4.48546 L91.2559,8.42798 L88.8386,8.42798 L88.8386,10.6438 M110.072,20.0541 L110.072,8.42798 L107.482,8.42798 L107.482,14.9317 C107.482,16.3706 106.187,17.9533 104.288,17.9533 C102.849,17.9533 102.014,17.3778 101.986,15.6511 L101.986,8.42798 L99.4244,8.42798 L99.4244,16.054 C99.4244,19.2483 101.468,20.3994 103.971,20.3994 C105.583,20.3994 106.878,19.6224 107.712,18.4426 L107.77,20.0541 L110.072,20.0541 M120.747,1.52138 L120.747,3.73725 L122.761,3.73725 L122.761,9.75175 C121.811,8.54309 120.315,8.11143 118.818,8.11143 C115.308,8.11143 112.833,10.7877 112.833,14.241 C112.833,17.867 115.279,20.3994 118.847,20.3994 C120.401,20.3994 121.926,19.7951 122.761,18.7303 L122.876,20.0541 L125.351,20.0541 L125.351,1.52138 L120.747,1.52138 M122.876,14.241 C122.876,16.1691 121.667,18.0972 119.135,18.0972 C117.005,18.0972 115.423,16.5432 115.423,14.2123 C115.423,11.9101 116.948,10.4136 119.135,10.4136 C121.667,10.4136 122.876,12.1978 122.876,14.241 M132.225,20.0541 L132.225,8.42798 L127.65,8.42798 L127.65,10.6438 L129.635,10.6438 L129.635,20.0541 L132.225,20.0541 M129.002,4.51424 C129.002,5.43512 129.722,6.24089 130.7,6.24089 C131.736,6.24089 132.427,5.49267 132.427,4.51424 C132.427,3.67969 131.707,2.81637 130.7,2.81637 C129.664,2.81637 129.002,3.47825 129.002,4.51424 M135.216,14.241 C135.216,17.5792 137.921,20.4282 141.575,20.4282 C145.259,20.4282 147.964,17.5792 147.964,14.241 C147.964,10.9028 145.259,8.11143 141.575,8.11143 C137.921,8.11143 135.216,10.9028 135.216,14.241 M137.806,14.241 C137.806,11.8237 139.561,10.4712 141.575,10.4712 C143.59,10.4712 145.345,11.8237 145.345,14.241 C145.345,16.5432 143.619,18.0397 141.575,18.0397 C139.417,18.0397 137.806,16.5432 137.806,14.241 Z" style="stroke:none;fill-rule:evenodd;fill:#ffffff;fill-opacity:1;"/>
        </g>
    </g>
</svg>
