<?xml version="1.0"?>
<svg version="1.1" xmlns="http://www.w3.org/2000/svg" xmlns:xlink="http://www.w3.org/1999/xlink" width="384" height="180">
    <desc iVinci="yes" version="4.6" gridStep="20" showGrid="no" snapToGrid="no" codePlatform="0"/>
    <g id="Layer1" name="Layer 3" opacity="1">
        <g id="Shape1">
            <desc shapeID="1" type="0" basicInfo-basicType="0" basicInfo-roundedRectRadius="12" basicInfo-polygonSides="6" basicInfo-starPoints="5" bounding="rect(-112.101,-25.8431,224.201,51.6864)" text="75mm studio" font-familyName="디자인하우스 OTF" font-pixelSize="86" font-bold="0" font-underline="0" font-alignment="1" strokeStyle="0" markerStart="0" markerEnd="0" shadowEnabled="0" shadowOffsetX="0" shadowOffsetY="2" shadowBlur="4" shadowOpacity="160" blurEnabled="0" blurRadius="4" transform="matrix(0.69819,0,0,0.69819,195.297,59.918)" pers-center="0,0" pers-size="0,0" pers-start="0,0" pers-end="0,0" locked="0" mesh="" flag=""/>
            <path id="shapePath1" d="M117.029,52.0221 L121.712,52.0221 L121.712,46.498 L133.301,46.498 L119.851,75.9198 C121.532,76.6405 123.093,77.2409 124.715,77.9615 C129.518,67.4535 134.321,57.0058 139.065,46.498 L139.065,41.8746 L117.029,41.8746 L117.029,52.0221 M150.209,58.687 L154.112,60.4883 C155.132,59.3475 156.814,58.5669 158.976,58.5669 C162.938,58.5669 166.241,60.8487 166.241,65.2319 C166.241,69.435 163.359,72.2571 159.336,72.2571 C156.034,72.2571 153.272,70.3957 151.59,67.2735 L147.627,69.7352 C149.789,74.3585 154.293,77.1208 159.576,77.1208 C165.88,77.1208 171.524,72.4973 171.524,65.2319 C171.524,58.7471 166.54,54.0037 160.116,54.0037 C158.555,54.0037 156.993,54.3037 156.213,54.544 L158.135,46.5581 L169.183,46.5581 L169.183,41.8746 L154.293,41.8746 L150.209,58.687 M192.343,70.816 L192.343,57.3661 C192.465,54.424 194.686,51.0014 197.987,51.0014 C200.871,51.0014 201.951,52.6226 201.951,55.9251 L201.951,70.816 L207.355,70.816 L207.355,57.3661 C207.476,54.424 209.697,51.0014 212.999,51.0014 C215.881,51.0014 216.962,52.6226 216.962,55.9251 L216.962,70.816 L222.366,70.816 L222.366,55.2645 C222.366,48.5395 219.124,45.8976 214.259,45.8976 C210.538,45.8976 208.136,47.879 206.514,50.401 C205.314,47.2187 202.673,45.8976 199.249,45.8976 C195.828,45.8976 193.425,47.6389 191.803,49.9206 L191.683,46.5581 L182.796,46.5581 L182.796,51.1815 L186.94,51.1815 L186.94,70.816 L192.343,70.816 M243.542,70.816 L243.542,57.3661 C243.662,54.424 245.883,51.0014 249.187,51.0014 C252.068,51.0014 253.149,52.6226 253.149,55.9251 L253.149,70.816 L258.553,70.816 L258.553,57.3661 C258.673,54.424 260.895,51.0014 264.198,51.0014 C267.08,51.0014 268.161,52.6226 268.161,55.9251 L268.161,70.816 L273.564,70.816 L273.564,55.2645 C273.564,48.5395 270.322,45.8976 265.459,45.8976 C261.735,45.8976 259.333,47.879 257.713,50.401 C256.511,47.2187 253.87,45.8976 250.447,45.8976 C247.025,45.8976 244.623,47.6389 243.002,49.9206 L242.882,46.5581 L233.995,46.5581 L233.995,51.1815 L238.138,51.1815 L238.138,70.816 L243.542,70.816 Z" style="stroke:none;fill-rule:evenodd;fill:url(#radialGradientFill1);fill-opacity:1;"/><defs><radialGradient id="radialGradientFill1" gradientUnits="userSpaceOnUse" cx="194.199" cy="62.9605" r="141.57" fx="199.815" fy="46.9135"><stop offset="0.113553" stop-color="#e5b582" stop-opacity="1"/><stop offset="1" stop-color="#a7845f" stop-opacity="1"/></radialGradient></defs>
        </g>
        <g id="Shape2">
            <desc shapeID="2" type="0" basicInfo-basicType="0" basicInfo-roundedRectRadius="12" basicInfo-polygonSides="6" basicInfo-starPoints="5" bounding="rect(-145.747,-28.251,291.495,56.5018)" text="75mm studio" font-familyName="디자인하우스 OTF" font-pixelSize="86" font-bold="0" font-underline="0" font-alignment="1" strokeStyle="0" markerStart="0" markerEnd="0" shadowEnabled="0" shadowOffsetX="0" shadowOffsetY="2" shadowBlur="4" shadowOpacity="160" blurEnabled="0" blurRadius="4" transform="matrix(0.69819,0,0,0.69819,192,117.249)" pers-center="0,0" pers-size="0,0" pers-start="0,0" pers-end="0,0" locked="0" mesh="" flag=""/>
            <path id="shapePath2" d="M100.148,126.526 C103.931,127.487 105.132,127.667 105.192,129.228 C105.252,130.969 103.931,132.23 100.568,132.23 C97.5661,132.23 94.564,131.149 92.4624,129.648 L90.2407,133.851 C91.9821,135.232 95.4646,136.914 100.688,136.914 C108.794,136.914 110.536,132.29 110.536,129.288 C110.536,123.704 106.513,122.863 101.949,121.782 C97.8062,120.822 96.6054,120.221 96.6054,118.42 C96.6054,116.559 98.2266,115.598 100.929,115.598 C102.67,115.598 103.991,115.898 104.771,116.318 L104.771,119.321 L109.455,119.321 L109.455,113.737 C107.894,112.356 105.372,111.215 100.989,111.215 C95.1644,111.215 91.3216,113.977 91.3216,118.48 C91.3216,123.224 94.0835,124.905 100.148,126.526 M124.735,116.559 L129.779,116.559 L129.779,128.568 C129.779,134.272 132.18,136.914 137.404,136.914 C139.385,136.914 141.368,136.493 142.628,135.773 C142.269,134.272 141.968,132.651 141.548,131.149 C140.827,131.63 139.506,131.99 138.365,131.99 C136.203,131.99 135.182,130.79 135.182,127.607 L135.182,116.559 L141.968,116.559 L141.968,111.935 L135.182,111.935 L135.182,103.709 L129.779,103.709 L129.779,111.935 L124.735,111.935 L124.735,116.559 M180.818,136.193 L180.818,111.935 L175.414,111.935 L175.414,125.505 C175.414,128.507 172.713,131.81 168.749,131.81 C165.747,131.81 164.006,130.609 163.946,127.007 L163.946,111.935 L158.603,111.935 L158.603,127.848 C158.603,134.512 162.865,136.914 168.089,136.914 C171.452,136.914 174.154,135.293 175.895,132.831 L176.015,136.193 L180.818,136.193 M213.722,97.5248 L213.722,102.148 L217.925,102.148 L217.925,114.698 C215.945,112.176 212.822,111.275 209.699,111.275 C202.374,111.275 197.21,116.859 197.21,124.065 C197.21,131.63 202.314,136.914 209.76,136.914 C213.002,136.914 216.185,135.653 217.925,133.431 L218.166,136.193 L223.33,136.193 L223.33,97.5248 L213.722,97.5248 M218.166,124.065 C218.166,128.087 215.644,132.11 210.359,132.11 C205.917,132.11 202.614,128.868 202.614,124.004 C202.614,119.201 205.797,116.079 210.359,116.079 C215.644,116.079 218.166,119.801 218.166,124.065 M248.693,136.193 L248.693,111.935 L239.146,111.935 L239.146,116.559 L243.289,116.559 L243.289,136.193 L248.693,136.193 M241.968,103.769 C241.968,105.691 243.468,107.372 245.51,107.372 C247.672,107.372 249.112,105.811 249.112,103.769 C249.112,102.028 247.613,100.227 245.51,100.227 C243.348,100.227 241.968,101.608 241.968,103.769 M267.16,124.065 C267.16,131.029 272.804,136.974 280.429,136.974 C288.115,136.974 293.759,131.029 293.759,124.065 C293.759,117.099 288.115,111.275 280.429,111.275 C272.804,111.275 267.16,117.099 267.16,124.065 M272.564,124.065 C272.564,119.021 276.225,116.199 280.429,116.199 C284.632,116.199 288.295,119.021 288.295,124.065 C288.295,128.868 284.692,131.99 280.429,131.99 C275.926,131.99 272.564,128.868 272.564,124.065 Z" style="stroke:none;fill-rule:evenodd;fill:url(#radialGradientFill2);fill-opacity:1;"/><defs><radialGradient id="radialGradientFill2" gradientUnits="userSpaceOnUse" cx="194.198" cy="62.9609" r="141.57" fx="199.814" fy="46.9137"><stop offset="0.113553" stop-color="#e5b582" stop-opacity="1"/><stop offset="1" stop-color="#a7845f" stop-opacity="1"/></radialGradient></defs>
        </g>
        <g id="Shape3">
            <desc shapeID="3" type="0" basicInfo-basicType="1" basicInfo-roundedRectRadius="12" basicInfo-polygonSides="6" basicInfo-starPoints="5" bounding="rect(-49.9997,-2.89245,99.9995,5.78488)" text="" font-familyName="Helvetica" font-pixelSize="20" font-bold="0" font-underline="0" font-alignment="1" strokeStyle="0" markerStart="0" markerEnd="0" shadowEnabled="0" shadowOffsetX="0" shadowOffsetY="2" shadowBlur="4" shadowOpacity="160" blurEnabled="0" blurRadius="4" transform="matrix(0.743467,0,0,0.406289,190.791,162.173)" pers-center="0,0" pers-size="0,0" pers-start="0,0" pers-end="0,0" locked="0" mesh="" flag=""/>
            <path id="shapePath3" d="M153.618,160.998 L227.965,160.998 L227.965,163.348 L153.618,163.348 L153.618,160.998 Z" style="stroke:none;fill-rule:evenodd;fill:url(#radialGradientFill3);fill-opacity:1;"/><defs><radialGradient id="radialGradientFill3" gradientUnits="userSpaceOnUse" cx="194.198" cy="62.961" r="141.57" fx="199.814" fy="46.9139"><stop offset="0.113553" stop-color="#e5b582" stop-opacity="1"/><stop offset="1" stop-color="#a7845f" stop-opacity="1"/></radialGradient></defs>
        </g>
        <g id="Shape4">
            <desc shapeID="4" type="0" basicInfo-basicType="1" basicInfo-roundedRectRadius="12" basicInfo-polygonSides="6" basicInfo-starPoints="5" bounding="rect(-49.9997,-2.89259,99.9995,5.78517)" text="" font-familyName="Helvetica" font-pixelSize="20" font-bold="0" font-underline="0" font-alignment="1" strokeStyle="0" markerStart="0" markerEnd="0" shadowEnabled="0" shadowOffsetX="0" shadowOffsetY="2" shadowBlur="4" shadowOpacity="160" blurEnabled="0" blurRadius="4" transform="matrix(0.743467,0,0,0.406289,190.791,17.8268)" pers-center="0,0" pers-size="0,0" pers-start="0,0" pers-end="0,0" locked="0" mesh="" flag=""/>
            <path id="shapePath4" d="M153.618,16.6516 L227.965,16.6516 L227.965,19.0021 L153.618,19.0021 L153.618,16.6516 Z" style="stroke:none;fill-rule:evenodd;fill:url(#radialGradientFill4);fill-opacity:1;"/><defs><radialGradient id="radialGradientFill4" gradientUnits="userSpaceOnUse" cx="194.198" cy="62.9605" r="141.57" fx="199.814" fy="46.9133"><stop offset="0.113553" stop-color="#e5b582" stop-opacity="1"/><stop offset="1" stop-color="#a7845f" stop-opacity="1"/></radialGradient></defs>
        </g>
    </g>
</svg>
