<?xml version="1.0"?>
<svg version="1.1" xmlns="http://www.w3.org/2000/svg" xmlns:xlink="http://www.w3.org/1999/xlink" width="384" height="180">
    <desc iVinci="yes" version="4.6" gridStep="20" showGrid="no" snapToGrid="no" codePlatform="0"/>
    <g id="Layer1" name="Layer 3" opacity="1">
        <g id="Shape1">
            <desc shapeID="1" type="0" basicInfo-basicType="0" basicInfo-roundedRectRadius="12" basicInfo-polygonSides="6" basicInfo-starPoints="5" bounding="rect(-112.101,-25.8431,224.201,51.6864)" text="75mm studio" font-familyName="디자인하우스 OTF" font-pixelSize="86" font-bold="0" font-underline="0" font-alignment="1" strokeStyle="0" markerStart="0" markerEnd="0" shadowEnabled="0" shadowOffsetX="0" shadowOffsetY="2" shadowBlur="4" shadowOpacity="160" blurEnabled="0" blurRadius="4" transform="matrix(0.809489,0,0,0.809489,195.822,55.1227)" pers-center="0,0" pers-size="0,0" pers-start="0,0" pers-end="0,0" locked="0" mesh="" flag=""/>
            <path id="shapePath1" d="M105.078,45.9681 L110.508,45.9681 L110.508,39.5634 L123.944,39.5634 L108.35,73.6753 C110.299,74.5109 112.109,75.207 113.989,76.0425 C119.558,63.8594 125.127,51.7462 130.627,39.5634 L130.627,34.2029 L105.078,34.2029 L105.078,45.9681 M143.547,53.6954 L148.072,55.7839 C149.255,54.4612 151.205,53.5562 153.712,53.5562 C158.305,53.5562 162.135,56.2017 162.135,61.2837 C162.135,66.1568 158.793,69.4288 154.129,69.4288 C150.301,69.4288 147.098,67.2706 145.148,63.6507 L140.554,66.5048 C143.06,71.8652 148.282,75.0678 154.407,75.0678 C161.716,75.0678 168.26,69.7072 168.26,61.2837 C168.26,53.7651 162.482,48.2655 155.033,48.2655 C153.224,48.2655 151.413,48.6134 150.508,48.892 L152.737,39.6331 L165.546,39.6331 L165.546,34.2029 L148.282,34.2029 L143.547,53.6954 M192.398,67.7579 L192.398,52.164 C192.539,48.7528 195.114,44.7846 198.942,44.7846 C202.285,44.7846 203.538,46.6643 203.538,50.4932 L203.538,67.7579 L209.803,67.7579 L209.803,52.164 C209.943,48.7528 212.518,44.7846 216.347,44.7846 C219.688,44.7846 220.941,46.6643 220.941,50.4932 L220.941,67.7579 L227.207,67.7579 L227.207,49.7274 C227.207,41.9303 223.448,38.8673 217.808,38.8673 C213.493,38.8673 210.708,41.1645 208.828,44.0885 C207.436,40.3989 204.374,38.8673 200.405,38.8673 C196.438,38.8673 193.652,40.8861 191.772,43.5316 L191.633,39.6331 L181.329,39.6331 L181.329,44.9935 L186.134,44.9935 L186.134,67.7579 L192.398,67.7579 M251.759,67.7579 L251.759,52.164 C251.898,48.7528 254.473,44.7846 258.303,44.7846 C261.644,44.7846 262.897,46.6643 262.897,50.4932 L262.897,67.7579 L269.163,67.7579 L269.163,52.164 C269.302,48.7528 271.878,44.7846 275.707,44.7846 C279.049,44.7846 280.302,46.6643 280.302,50.4932 L280.302,67.7579 L286.566,67.7579 L286.566,49.7274 C286.566,41.9303 282.808,38.8673 277.169,38.8673 C272.852,38.8673 270.067,41.1645 268.188,44.0885 C266.795,40.3989 263.733,38.8673 259.764,38.8673 C255.797,38.8673 253.012,40.8861 251.133,43.5316 L250.993,39.6331 L240.69,39.6331 L240.69,44.9935 L245.493,44.9935 L245.493,67.7579 L251.759,67.7579 Z" style="stroke:none;fill-rule:evenodd;fill:url(#radialGradientFill1);fill-opacity:1;"/><defs><radialGradient id="radialGradientFill1" gradientUnits="userSpaceOnUse" cx="194.549" cy="58.6503" r="164.138" fx="201.06" fy="40.0452"><stop offset="0.113553" stop-color="#e5b582" stop-opacity="1"/><stop offset="1" stop-color="#a7845f" stop-opacity="1"/></radialGradient></defs>
        </g>
        <g id="Shape2">
            <desc shapeID="2" type="0" basicInfo-basicType="0" basicInfo-roundedRectRadius="12" basicInfo-polygonSides="6" basicInfo-starPoints="5" bounding="rect(-145.747,-28.2511,291.494,56.502)" text="75mm studio" font-familyName="디자인하우스 OTF" font-pixelSize="86" font-bold="0" font-underline="0" font-alignment="1" strokeStyle="0" markerStart="0" markerEnd="0" shadowEnabled="0" shadowOffsetX="0" shadowOffsetY="2" shadowBlur="4" shadowOpacity="160" blurEnabled="0" blurRadius="4" transform="matrix(0.809489,0,0,0.809489,192,121.593)" pers-center="0,0" pers-size="0,0" pers-start="0,0" pers-end="0,0" locked="0" mesh="" flag=""/>
            <path id="shapePath2" d="M85.5059,132.349 C89.8918,133.463 91.284,133.672 91.3537,135.482 C91.4232,137.5 89.8918,138.962 85.9933,138.962 C82.5124,138.962 79.0317,137.709 76.5951,135.969 L74.0192,140.842 C76.0382,142.443 80.0759,144.393 86.1325,144.393 C95.5307,144.393 97.5495,139.032 97.5495,135.551 C97.5495,129.077 92.8853,128.102 87.5944,126.849 C82.7908,125.735 81.3986,125.039 81.3986,122.951 C81.3986,120.793 83.2782,119.679 86.4109,119.679 C88.4299,119.679 89.9613,120.027 90.8664,120.514 L90.8664,123.995 L96.2965,123.995 L96.2965,117.521 C94.4864,115.92 91.5625,114.597 86.4806,114.597 C79.7278,114.597 75.2724,117.799 75.2724,123.02 C75.2724,128.52 78.4747,130.469 85.5059,132.349 M114.012,120.793 L119.86,120.793 L119.86,134.716 C119.86,141.329 122.644,144.393 128.701,144.393 C130.998,144.393 133.297,143.905 134.758,143.07 C134.341,141.329 133.993,139.45 133.505,137.709 C132.669,138.266 131.138,138.684 129.815,138.684 C127.309,138.684 126.125,137.292 126.125,133.602 L126.125,120.793 L133.993,120.793 L133.993,115.432 L126.125,115.432 L126.125,105.895 L119.86,105.895 L119.86,115.432 L114.012,115.432 L114.012,120.793 M179.036,143.557 L179.036,115.432 L172.77,115.432 L172.77,131.165 C172.77,134.646 169.638,138.475 165.043,138.475 C161.562,138.475 159.543,137.083 159.474,132.906 L159.474,115.432 L153.279,115.432 L153.279,133.881 C153.279,141.608 158.221,144.393 164.277,144.393 C168.176,144.393 171.309,142.513 173.328,139.659 L173.467,143.557 L179.036,143.557 M217.185,98.7244 L217.185,104.085 L222.058,104.085 L222.058,118.635 C219.762,115.711 216.141,114.667 212.521,114.667 C204.028,114.667 198.041,121.141 198.041,129.495 C198.041,138.266 203.958,144.393 212.591,144.393 C216.35,144.393 220.04,142.931 222.058,140.355 L222.337,143.557 L228.324,143.557 L228.324,98.7244 L217.185,98.7244 M222.337,129.495 C222.337,134.159 219.413,138.823 213.286,138.823 C208.136,138.823 204.306,135.064 204.306,129.425 C204.306,123.856 207.996,120.236 213.286,120.236 C219.413,120.236 222.337,124.552 222.337,129.495 M257.731,143.557 L257.731,115.432 L246.662,115.432 L246.662,120.793 L251.465,120.793 L251.465,143.557 L257.731,143.557 M249.934,105.964 C249.934,108.192 251.673,110.141 254.04,110.141 C256.547,110.141 258.217,108.331 258.217,105.964 C258.217,103.946 256.478,101.857 254.04,101.857 C251.534,101.857 249.934,103.458 249.934,105.964 M279.141,129.495 C279.141,137.57 285.685,144.462 294.526,144.462 C303.437,144.462 309.981,137.57 309.981,129.495 C309.981,121.419 303.437,114.667 294.526,114.667 C285.685,114.667 279.141,121.419 279.141,129.495 M285.407,129.495 C285.407,123.647 289.652,120.375 294.526,120.375 C299.399,120.375 303.646,123.647 303.646,129.495 C303.646,135.064 299.468,138.684 294.526,138.684 C289.305,138.684 285.407,135.064 285.407,129.495 Z" style="stroke:none;fill-rule:evenodd;fill:url(#radialGradientFill2);fill-opacity:1;"/><defs><radialGradient id="radialGradientFill2" gradientUnits="userSpaceOnUse" cx="194.548" cy="58.6504" r="164.138" fx="201.06" fy="40.0451"><stop offset="0.113553" stop-color="#e5b582" stop-opacity="1"/><stop offset="1" stop-color="#a7845f" stop-opacity="1"/></radialGradient></defs>
        </g>
        <g id="Shape3">
            <desc shapeID="3" type="0" basicInfo-basicType="1" basicInfo-roundedRectRadius="12" basicInfo-polygonSides="6" basicInfo-starPoints="5" bounding="rect(-49.9997,-2.89252,99.9995,5.78503)" text="" font-familyName="Helvetica" font-pixelSize="20" font-bold="0" font-underline="0" font-alignment="1" strokeStyle="0" markerStart="0" markerEnd="0" shadowEnabled="0" shadowOffsetX="0" shadowOffsetY="2" shadowBlur="4" shadowOpacity="160" blurEnabled="0" blurRadius="4" transform="matrix(0.861984,0,0,0.471056,190.599,173.678)" pers-center="0,0" pers-size="0,0" pers-start="0,0" pers-end="0,0" locked="0" mesh="" flag=""/>
            <path id="shapePath3" d="M147.5,172.316 L233.698,172.316 L233.698,175.041 L147.5,175.041 L147.5,172.316 Z" style="stroke:none;fill-rule:evenodd;fill:url(#radialGradientFill3);fill-opacity:1;"/><defs><radialGradient id="radialGradientFill3" gradientUnits="userSpaceOnUse" cx="194.549" cy="58.6502" r="164.138" fx="201.06" fy="40.0451"><stop offset="0.113553" stop-color="#e5b582" stop-opacity="1"/><stop offset="1" stop-color="#a7845f" stop-opacity="1"/></radialGradient></defs>
        </g>
        <g id="Shape4">
            <desc shapeID="4" type="0" basicInfo-basicType="1" basicInfo-roundedRectRadius="12" basicInfo-polygonSides="6" basicInfo-starPoints="5" bounding="rect(-49.9997,-2.89259,99.9995,5.78517)" text="" font-familyName="Helvetica" font-pixelSize="20" font-bold="0" font-underline="0" font-alignment="1" strokeStyle="0" markerStart="0" markerEnd="0" shadowEnabled="0" shadowOffsetX="0" shadowOffsetY="2" shadowBlur="4" shadowOpacity="160" blurEnabled="0" blurRadius="4" transform="matrix(0.861984,0,0,0.471056,190.599,6.3217)" pers-center="0,0" pers-size="0,0" pers-start="0,0" pers-end="0,0" locked="0" mesh="" flag=""/>
            <path id="shapePath4" d="M147.5,4.95913 L233.698,4.95913 L233.698,7.68427 L147.5,7.68427 L147.5,4.95913 Z" style="stroke:none;fill-rule:evenodd;fill:url(#radialGradientFill4);fill-opacity:1;"/><defs><radialGradient id="radialGradientFill4" gradientUnits="userSpaceOnUse" cx="194.549" cy="58.6502" r="164.138" fx="201.06" fy="40.0449"><stop offset="0.113553" stop-color="#e5b582" stop-opacity="1"/><stop offset="1" stop-color="#a7845f" stop-opacity="1"/></radialGradient></defs>
        </g>
    </g>
</svg>
