<?xml version="1.0"?>
<svg version="1.1" xmlns="http://www.w3.org/2000/svg" xmlns:xlink="http://www.w3.org/1999/xlink" width="512" height="150">
    <desc iVinci="yes" version="4.6" gridStep="20" showGrid="no" snapToGrid="no" codePlatform="0"/>
    <g id="Layer1" name="Layer 2" visibility="hidden" opacity="1">
        <g id="Shape1">
            <desc shapeID="1" type="0" basicInfo-basicType="1" basicInfo-roundedRectRadius="12" basicInfo-polygonSides="6" basicInfo-starPoints="5" bounding="rect(-256,-100.5,512,201)" text="" font-familyName="디자인하우스 OTF" font-pixelSize="86" font-bold="0" font-underline="0" font-alignment="1" strokeStyle="0" markerStart="0" markerEnd="0" shadowEnabled="0" shadowOffsetX="0" shadowOffsetY="2" shadowBlur="4" shadowOpacity="160" blurEnabled="0" blurRadius="4" transform="matrix(1,0,0,1.49751,256,149.5)" pers-center="0,0" pers-size="0,0" pers-start="0,0" pers-end="0,0" locked="0" mesh="" flag=""/>
            <path id="shapePath1" d="M0,-1 L512,-1 L512,300 L0,300 L0,-1 Z" style="stroke:none;fill-rule:evenodd;fill:#333338;fill-opacity:1;"/>
        </g>
    </g>
    <g id="Layer2" name="Layer 1" opacity="1">
        <g id="Shape2">
            <desc shapeID="2" type="0" basicInfo-basicType="0" basicInfo-roundedRectRadius="12" basicInfo-polygonSides="6" basicInfo-starPoints="5" bounding="rect(-112.101,-25.843,224.203,51.686)" text="75mm studio" font-familyName="디자인하우스 OTF" font-pixelSize="86" font-bold="0" font-underline="0" font-alignment="1" strokeStyle="0" markerStart="0" markerEnd="0" shadowEnabled="0" shadowOffsetX="0" shadowOffsetY="2" shadowBlur="4" shadowOpacity="160" blurEnabled="0" blurRadius="4" transform="matrix(1,0,0,1,256,32.7393)" pers-center="0,0" pers-size="0,0" pers-start="0,0" pers-end="0,0" locked="0" mesh="" flag=""/>
            <path id="shapePath2" d="M143.899,21.4302 L150.607,21.4302 L150.607,13.5182 L167.205,13.5182 L147.941,55.6582 C150.349,56.6903 152.585,57.5502 154.907,58.5823 C161.787,43.5322 168.667,28.5682 175.461,13.5182 L175.461,6.89625 L143.899,6.89625 L143.899,21.4302 M191.422,30.9762 L197.012,33.5562 C198.474,31.9222 200.882,30.8042 203.978,30.8042 C209.654,30.8042 214.384,34.0723 214.384,40.3503 C214.384,46.3702 210.256,50.4122 204.494,50.4122 C199.764,50.4122 195.808,47.7462 193.4,43.2742 L187.724,46.8002 C190.82,53.4222 197.27,57.3782 204.838,57.3782 C213.868,57.3782 221.952,50.7562 221.952,40.3503 C221.952,31.0622 214.814,24.2682 205.612,24.2682 C203.376,24.2682 201.14,24.6982 200.022,25.0422 L202.774,13.6042 L218.598,13.6042 L218.598,6.89625 L197.27,6.89625 L191.422,30.9762 M251.771,48.3482 L251.771,29.0842 C251.943,24.8702 255.125,19.9682 259.855,19.9682 C263.983,19.9682 265.531,22.2902 265.531,27.0202 L265.531,48.3482 L273.271,48.3482 L273.271,29.0842 C273.443,24.8702 276.625,19.9682 281.355,19.9682 C285.483,19.9682 287.031,22.2902 287.031,27.0202 L287.031,48.3482 L294.771,48.3482 L294.771,26.0742 C294.771,16.4422 290.127,12.6582 283.161,12.6582 C277.829,12.6582 274.389,15.4962 272.067,19.1082 C270.347,14.5502 266.563,12.6582 261.661,12.6582 C256.759,12.6582 253.319,15.1522 250.997,18.4202 L250.825,13.6042 L238.097,13.6042 L238.097,20.2262 L244.031,20.2262 L244.031,48.3482 L251.771,48.3482 M325.101,48.3482 L325.101,29.0842 C325.273,24.8702 328.455,19.9682 333.185,19.9682 C337.313,19.9682 338.861,22.2902 338.861,27.0202 L338.861,48.3482 L346.601,48.3482 L346.601,29.0842 C346.773,24.8702 349.955,19.9682 354.685,19.9682 C358.813,19.9682 360.361,22.2902 360.361,27.0202 L360.361,48.3482 L368.101,48.3482 L368.101,26.0742 C368.101,16.4422 363.457,12.6582 356.491,12.6582 C351.159,12.6582 347.719,15.4962 345.397,19.1082 C343.677,14.5502 339.893,12.6582 334.991,12.6582 C330.089,12.6582 326.649,15.1522 324.327,18.4202 L324.155,13.6042 L311.427,13.6042 L311.427,20.2262 L317.361,20.2262 L317.361,48.3482 L325.101,48.3482 Z" style="stroke:none;fill-rule:evenodd;fill:#c2996e;fill-opacity:1;"/>
        </g>
        <g id="Shape3">
            <desc shapeID="3" type="0" basicInfo-basicType="0" basicInfo-roundedRectRadius="12" basicInfo-polygonSides="6" basicInfo-starPoints="5" bounding="rect(-145.747,-28.251,291.493,56.502)" text="75mm studio" font-familyName="디자인하우스 OTF" font-pixelSize="86" font-bold="0" font-underline="0" font-alignment="1" strokeStyle="0" markerStart="0" markerEnd="0" shadowEnabled="0" shadowOffsetX="0" shadowOffsetY="2" shadowBlur="4" shadowOpacity="160" blurEnabled="0" blurRadius="4" transform="matrix(1,0,0,1,256,114.853)" pers-center="0,0" pers-size="0,0" pers-start="0,0" pers-end="0,0" locked="0" mesh="" flag=""/>
            <path id="shapePath3" d="M124.443,128.14 C129.861,129.516 131.581,129.774 131.667,132.01 C131.753,134.504 129.861,136.31 125.045,136.31 C120.745,136.31 116.445,134.762 113.435,132.612 L110.253,138.632 C112.747,140.61 117.735,143.018 125.217,143.018 C136.827,143.018 139.321,136.396 139.321,132.096 C139.321,124.098 133.559,122.894 127.023,121.346 C121.089,119.97 119.369,119.11 119.369,116.53 C119.369,113.864 121.691,112.488 125.561,112.488 C128.055,112.488 129.947,112.918 131.065,113.52 L131.065,117.82 L137.773,117.82 L137.773,109.822 C135.537,107.844 131.925,106.21 125.647,106.21 C117.305,106.21 111.801,110.166 111.801,116.616 C111.801,123.41 115.757,125.818 124.443,128.14 M159.658,113.864 L166.882,113.864 L166.882,131.064 C166.882,139.234 170.322,143.018 177.804,143.018 C180.642,143.018 183.481,142.416 185.287,141.384 C184.771,139.234 184.341,136.912 183.739,134.762 C182.706,135.45 180.814,135.966 179.18,135.966 C176.084,135.966 174.622,134.246 174.622,129.688 L174.622,113.864 L184.341,113.864 L184.341,107.242 L174.622,107.242 L174.622,95.4597 L166.882,95.4597 L166.882,107.242 L159.658,107.242 L159.658,113.864 M239.985,141.986 L239.985,107.242 L232.245,107.242 L232.245,126.678 C232.245,130.978 228.375,135.708 222.699,135.708 C218.399,135.708 215.905,133.988 215.819,128.828 L215.819,107.242 L208.165,107.242 L208.165,130.032 C208.165,139.578 214.271,143.018 221.753,143.018 C226.569,143.018 230.439,140.696 232.933,137.17 L233.105,141.986 L239.985,141.986 M287.113,86.6017 L287.113,93.2237 L293.133,93.2237 L293.133,111.198 C290.295,107.586 285.823,106.296 281.351,106.296 C270.859,106.296 263.463,114.294 263.463,124.614 C263.463,135.45 270.773,143.018 281.437,143.018 C286.081,143.018 290.639,141.212 293.133,138.03 L293.477,141.986 L300.873,141.986 L300.873,86.6017 L287.113,86.6017 M293.477,124.614 C293.477,130.376 289.865,136.138 282.297,136.138 C275.933,136.138 271.203,131.494 271.203,124.528 C271.203,117.648 275.761,113.176 282.297,113.176 C289.865,113.176 293.477,118.508 293.477,124.614 M337.2,141.986 L337.2,107.242 L323.526,107.242 L323.526,113.864 L329.46,113.864 L329.46,141.986 L337.2,141.986 M327.568,95.5457 C327.568,98.2977 329.718,100.706 332.642,100.706 C335.738,100.706 337.802,98.4697 337.802,95.5457 C337.802,93.0517 335.652,90.4717 332.642,90.4717 C329.546,90.4717 327.568,92.4497 327.568,95.5457 M363.649,124.614 C363.649,134.59 371.733,143.104 382.655,143.104 C393.663,143.104 401.747,134.59 401.747,124.614 C401.747,114.638 393.663,106.296 382.655,106.296 C371.733,106.296 363.649,114.638 363.649,124.614 M371.389,124.614 C371.389,117.39 376.635,113.348 382.655,113.348 C388.675,113.348 393.921,117.39 393.921,124.614 C393.921,131.494 388.761,135.966 382.655,135.966 C376.205,135.966 371.389,131.494 371.389,124.614 Z" style="stroke:none;fill-rule:evenodd;fill:#c2996e;fill-opacity:1;"/>
        </g>
    </g>
</svg>
