<?xml version="1.0"?>
<svg version="1.1" xmlns="http://www.w3.org/2000/svg" xmlns:xlink="http://www.w3.org/1999/xlink" width="512" height="300">
    <desc iVinci="yes" version="4.6" gridStep="20" showGrid="no" snapToGrid="no" codePlatform="0"/>
    <g id="Layer1" name="Layer 2" visibility="hidden" opacity="1">
        <g id="Shape1">
            <desc shapeID="1" type="0" basicInfo-basicType="1" basicInfo-roundedRectRadius="12" basicInfo-polygonSides="6" basicInfo-starPoints="5" bounding="rect(-256,-100.5,512,201)" text="" font-familyName="디자인하우스 OTF" font-pixelSize="86" font-bold="0" font-underline="0" font-alignment="1" strokeStyle="0" markerStart="0" markerEnd="0" shadowEnabled="0" shadowOffsetX="0" shadowOffsetY="2" shadowBlur="4" shadowOpacity="160" blurEnabled="0" blurRadius="4" transform="matrix(1,0,0,1.49751,256,149.5)" pers-center="0,0" pers-size="0,0" pers-start="0,0" pers-end="0,0" locked="0" mesh="" flag=""/>
            <path id="shapePath1" d="M0,-1 L512,-1 L512,300 L0,300 L0,-1 Z" style="stroke:none;fill-rule:evenodd;fill:#333338;fill-opacity:1;"/>
        </g>
    </g>
    <g id="Layer2" name="Layer 1" opacity="1">
        <g id="Shape2">
            <desc shapeID="2" type="0" basicInfo-basicType="0" basicInfo-roundedRectRadius="12" basicInfo-polygonSides="6" basicInfo-starPoints="5" bounding="rect(-112.101,-25.843,224.203,51.686)" text="75mm studio" font-familyName="디자인하우스 OTF" font-pixelSize="86" font-bold="0" font-underline="0" font-alignment="1" strokeStyle="0" markerStart="0" markerEnd="0" shadowEnabled="0" shadowOffsetX="0" shadowOffsetY="2" shadowBlur="4" shadowOpacity="160" blurEnabled="0" blurRadius="4" transform="matrix(1,0,0,1,256,118.887)" pers-center="0,0" pers-size="0,0" pers-start="0,0" pers-end="0,0" locked="0" mesh="" flag=""/>
            <path id="shapePath2" d="M143.899,107.577 L150.607,107.577 L150.607,99.6655 L167.205,99.6655 L147.941,141.805 C150.349,142.838 152.585,143.697 154.907,144.73 C161.787,129.68 168.667,114.715 175.461,99.6655 L175.461,93.0435 L143.899,93.0435 L143.899,107.577 M191.422,117.124 L197.012,119.703 C198.474,118.07 200.882,116.951 203.978,116.951 C209.654,116.951 214.384,120.22 214.384,126.498 C214.384,132.518 210.256,136.56 204.494,136.56 C199.764,136.56 195.808,133.893 193.4,129.422 L187.724,132.948 C190.82,139.57 197.27,143.525 204.838,143.525 C213.868,143.525 221.952,136.904 221.952,126.498 C221.952,117.21 214.814,110.416 205.612,110.416 C203.376,110.416 201.14,110.846 200.022,111.189 L202.774,99.7515 L218.598,99.7515 L218.598,93.0435 L197.27,93.0435 L191.422,117.124 M251.771,134.495 L251.771,115.231 C251.943,111.018 255.125,106.116 259.855,106.116 C263.983,106.116 265.531,108.438 265.531,113.168 L265.531,134.495 L273.271,134.495 L273.271,115.231 C273.443,111.018 276.625,106.116 281.355,106.116 C285.483,106.116 287.031,108.438 287.031,113.168 L287.031,134.495 L294.771,134.495 L294.771,112.222 C294.771,102.59 290.127,98.8055 283.161,98.8055 C277.829,98.8055 274.389,101.644 272.067,105.256 C270.347,100.698 266.563,98.8055 261.661,98.8055 C256.759,98.8055 253.319,101.299 250.997,104.568 L250.825,99.7515 L238.097,99.7515 L238.097,106.374 L244.031,106.374 L244.031,134.495 L251.771,134.495 M325.101,134.495 L325.101,115.231 C325.273,111.018 328.455,106.116 333.185,106.116 C337.313,106.116 338.861,108.438 338.861,113.168 L338.861,134.495 L346.601,134.495 L346.601,115.231 C346.773,111.018 349.955,106.116 354.685,106.116 C358.813,106.116 360.361,108.438 360.361,113.168 L360.361,134.495 L368.101,134.495 L368.101,112.222 C368.101,102.59 363.457,98.8055 356.491,98.8055 C351.159,98.8055 347.719,101.644 345.397,105.256 C343.677,100.698 339.893,98.8055 334.991,98.8055 C330.089,98.8055 326.649,101.299 324.327,104.568 L324.155,99.7515 L311.427,99.7515 L311.427,106.374 L317.361,106.374 L317.361,134.495 L325.101,134.495 Z" style="stroke:none;fill-rule:evenodd;fill:#c2996e;fill-opacity:1;"/>
        </g>
        <g id="Shape3">
            <desc shapeID="3" type="0" basicInfo-basicType="0" basicInfo-roundedRectRadius="12" basicInfo-polygonSides="6" basicInfo-starPoints="5" bounding="rect(-145.747,-28.251,291.493,56.502)" text="75mm studio" font-familyName="디자인하우스 OTF" font-pixelSize="86" font-bold="0" font-underline="0" font-alignment="1" strokeStyle="0" markerStart="0" markerEnd="0" shadowEnabled="0" shadowOffsetX="0" shadowOffsetY="2" shadowBlur="4" shadowOpacity="160" blurEnabled="0" blurRadius="4" transform="matrix(1,0,0,1,256,201)" pers-center="0,0" pers-size="0,0" pers-start="0,0" pers-end="0,0" locked="0" mesh="" flag=""/>
            <path id="shapePath3" d="M124.443,214.287 C129.861,215.663 131.581,215.921 131.667,218.157 C131.753,220.651 129.861,222.457 125.045,222.457 C120.745,222.457 116.445,220.909 113.435,218.759 L110.253,224.779 C112.747,226.757 117.735,229.165 125.217,229.165 C136.827,229.165 139.321,222.543 139.321,218.243 C139.321,210.245 133.559,209.041 127.023,207.493 C121.089,206.117 119.369,205.257 119.369,202.677 C119.369,200.011 121.691,198.635 125.561,198.635 C128.055,198.635 129.947,199.065 131.065,199.667 L131.065,203.967 L137.773,203.967 L137.773,195.969 C135.537,193.991 131.925,192.357 125.647,192.357 C117.305,192.357 111.801,196.313 111.801,202.763 C111.801,209.557 115.757,211.965 124.443,214.287 M159.658,200.011 L166.882,200.011 L166.882,217.211 C166.882,225.381 170.322,229.165 177.804,229.165 C180.642,229.165 183.481,228.563 185.287,227.531 C184.771,225.381 184.341,223.059 183.739,220.909 C182.706,221.597 180.814,222.113 179.18,222.113 C176.084,222.113 174.622,220.393 174.622,215.835 L174.622,200.011 L184.341,200.011 L184.341,193.389 L174.622,193.389 L174.622,181.607 L166.882,181.607 L166.882,193.389 L159.658,193.389 L159.658,200.011 M239.985,228.133 L239.985,193.389 L232.245,193.389 L232.245,212.825 C232.245,217.125 228.375,221.855 222.699,221.855 C218.399,221.855 215.905,220.135 215.819,214.975 L215.819,193.389 L208.165,193.389 L208.165,216.179 C208.165,225.725 214.271,229.165 221.753,229.165 C226.569,229.165 230.439,226.843 232.933,223.317 L233.105,228.133 L239.985,228.133 M287.113,172.749 L287.113,179.371 L293.133,179.371 L293.133,197.345 C290.295,193.733 285.823,192.443 281.351,192.443 C270.859,192.443 263.463,200.441 263.463,210.761 C263.463,221.597 270.773,229.165 281.437,229.165 C286.081,229.165 290.639,227.359 293.133,224.177 L293.477,228.133 L300.873,228.133 L300.873,172.749 L287.113,172.749 M293.477,210.761 C293.477,216.523 289.865,222.285 282.297,222.285 C275.933,222.285 271.203,217.641 271.203,210.675 C271.203,203.795 275.761,199.323 282.297,199.323 C289.865,199.323 293.477,204.655 293.477,210.761 M337.2,228.133 L337.2,193.389 L323.526,193.389 L323.526,200.011 L329.46,200.011 L329.46,228.133 L337.2,228.133 M327.568,181.693 C327.568,184.445 329.718,186.853 332.642,186.853 C335.738,186.853 337.802,184.617 337.802,181.693 C337.802,179.199 335.652,176.619 332.642,176.619 C329.546,176.619 327.568,178.597 327.568,181.693 M363.649,210.761 C363.649,220.737 371.733,229.251 382.655,229.251 C393.663,229.251 401.747,220.737 401.747,210.761 C401.747,200.785 393.663,192.443 382.655,192.443 C371.733,192.443 363.649,200.785 363.649,210.761 M371.389,210.761 C371.389,203.537 376.635,199.495 382.655,199.495 C388.675,199.495 393.921,203.537 393.921,210.761 C393.921,217.641 388.761,222.113 382.655,222.113 C376.205,222.113 371.389,217.641 371.389,210.761 Z" style="stroke:none;fill-rule:evenodd;fill:#c2996e;fill-opacity:1;"/>
        </g>
        <g id="Shape4">
            <desc shapeID="4" type="0" basicInfo-basicType="1" basicInfo-roundedRectRadius="12" basicInfo-polygonSides="6" basicInfo-starPoints="5" bounding="rect(-65,-2.5,130,5)" text="" font-familyName="디자인하우스 OTF" font-pixelSize="86" font-bold="0" font-underline="0" font-alignment="1" strokeStyle="0" markerStart="0" markerEnd="0" shadowEnabled="0" shadowOffsetX="0" shadowOffsetY="2" shadowBlur="4" shadowOpacity="160" blurEnabled="0" blurRadius="4" transform="matrix(0.860498,0,0,0.468711,244.799,54.6718)" pers-center="0,0" pers-size="0,0" pers-start="0,0" pers-end="0,0" locked="0" mesh="" flag=""/>
            <path id="shapePath4" d="M188.867,53.5 L300.731,53.5 L300.731,55.8435 L188.867,55.8435 L188.867,53.5 Z" style="stroke:none;fill-rule:evenodd;fill:#c2996e;fill-opacity:1;"/>
        </g>
        <g id="Shape5">
            <desc shapeID="5" type="0" basicInfo-basicType="1" basicInfo-roundedRectRadius="12" basicInfo-polygonSides="6" basicInfo-starPoints="5" bounding="rect(-65,-2.5,130,5)" text="" font-familyName="디자인하우스 OTF" font-pixelSize="86" font-bold="0" font-underline="0" font-alignment="1" strokeStyle="0" markerStart="0" markerEnd="0" shadowEnabled="0" shadowOffsetX="0" shadowOffsetY="2" shadowBlur="4" shadowOpacity="160" blurEnabled="0" blurRadius="4" transform="matrix(0.860498,0,0,0.468711,250.929,266.124)" pers-center="0,0" pers-size="0,0" pers-start="0,0" pers-end="0,0" locked="0" mesh="" flag=""/>
            <path id="shapePath5" d="M194.997,264.952 L306.861,264.952 L306.861,267.296 L194.997,267.296 L194.997,264.952 Z" style="stroke:none;fill-rule:evenodd;fill:#c2996e;fill-opacity:1;"/>
        </g>
    </g>
</svg>
