<?xml version="1.0"?>
<svg version="1.1" xmlns="http://www.w3.org/2000/svg" xmlns:xlink="http://www.w3.org/1999/xlink" width="512" height="200">
    <desc iVinci="yes" version="4.6" gridStep="20" showGrid="no" snapToGrid="no" codePlatform="0"/>
    <g id="Layer1" name="Layer 2" visibility="hidden" opacity="1">
        <g id="Shape1">
            <desc shapeID="1" type="0" basicInfo-basicType="1" basicInfo-roundedRectRadius="12" basicInfo-polygonSides="6" basicInfo-starPoints="5" bounding="rect(-256,-100.5,512,201)" text="" font-familyName="디자인하우스 OTF" font-pixelSize="86" font-bold="0" font-underline="0" font-alignment="1" strokeStyle="0" markerStart="0" markerEnd="0" shadowEnabled="0" shadowOffsetX="0" shadowOffsetY="2" shadowBlur="4" shadowOpacity="160" blurEnabled="0" blurRadius="4" transform="matrix(1,0,0,1.49751,256,149.5)" pers-center="0,0" pers-size="0,0" pers-start="0,0" pers-end="0,0" locked="0" mesh="" flag=""/>
            <path id="shapePath1" d="M0,-1 L512,-1 L512,300 L0,300 L0,-1 Z" style="stroke:none;fill-rule:evenodd;fill:#333338;fill-opacity:1;"/>
        </g>
    </g>
    <g id="Layer2" name="Layer 1" opacity="1">
        <g id="Shape2">
            <desc shapeID="2" type="0" basicInfo-basicType="0" basicInfo-roundedRectRadius="12" basicInfo-polygonSides="6" basicInfo-starPoints="5" bounding="rect(-112.101,-25.843,224.202,51.6861)" text="75mm studio" font-familyName="디자인하우스 OTF" font-pixelSize="86" font-bold="0" font-underline="0" font-alignment="1" strokeStyle="0" markerStart="0" markerEnd="0" shadowEnabled="0" shadowOffsetX="0" shadowOffsetY="2" shadowBlur="4" shadowOpacity="160" blurEnabled="0" blurRadius="4" transform="matrix(1,0,0,1,257.574,57.7392)" pers-center="0,0" pers-size="0,0" pers-start="0,0" pers-end="0,0" locked="0" mesh="" flag=""/>
            <path id="shapePath2" d="M145.473,46.4301 L152.181,46.4301 L152.181,38.5181 L168.779,38.5181 L149.515,80.6581 C151.923,81.6902 154.159,82.5501 156.481,83.5822 C163.361,68.5321 170.241,53.5681 177.035,38.5181 L177.035,31.8961 L145.473,31.8961 L145.473,46.4301 M192.996,55.9761 L198.586,58.5561 C200.048,56.9221 202.456,55.8041 205.552,55.8041 C211.228,55.8041 215.958,59.0722 215.958,65.3502 C215.958,71.3701 211.83,75.4121 206.068,75.4121 C201.338,75.4121 197.382,72.7461 194.974,68.2741 L189.298,71.8001 C192.394,78.4221 198.844,82.3781 206.412,82.3781 C215.442,82.3781 223.526,75.7561 223.526,65.3502 C223.526,56.0621 216.388,49.2681 207.186,49.2681 C204.95,49.2681 202.714,49.6981 201.596,50.0421 L204.348,38.6041 L220.172,38.6041 L220.172,31.8961 L198.844,31.8961 L192.996,55.9761 M253.345,73.3481 L253.345,54.0841 C253.517,49.8701 256.699,44.9681 261.429,44.9681 C265.557,44.9681 267.105,47.2901 267.105,52.0201 L267.105,73.3481 L274.845,73.3481 L274.845,54.0841 C275.017,49.8701 278.199,44.9681 282.929,44.9681 C287.057,44.9681 288.605,47.2901 288.605,52.0201 L288.605,73.3481 L296.345,73.3481 L296.345,51.0741 C296.345,41.4421 291.701,37.6581 284.735,37.6581 C279.403,37.6581 275.963,40.4961 273.641,44.1081 C271.921,39.5501 268.137,37.6581 263.235,37.6581 C258.333,37.6581 254.893,40.1521 252.571,43.4201 L252.399,38.6041 L239.671,38.6041 L239.671,45.2261 L245.605,45.2261 L245.605,73.3481 L253.345,73.3481 M326.675,73.3481 L326.675,54.0841 C326.847,49.8701 330.029,44.9681 334.759,44.9681 C338.887,44.9681 340.435,47.2901 340.435,52.0201 L340.435,73.3481 L348.175,73.3481 L348.175,54.0841 C348.347,49.8701 351.529,44.9681 356.259,44.9681 C360.387,44.9681 361.935,47.2901 361.935,52.0201 L361.935,73.3481 L369.675,73.3481 L369.675,51.0741 C369.675,41.4421 365.031,37.6581 358.065,37.6581 C352.733,37.6581 349.293,40.4961 346.971,44.1081 C345.251,39.5501 341.467,37.6581 336.565,37.6581 C331.663,37.6581 328.223,40.1521 325.901,43.4201 L325.729,38.6041 L313.001,38.6041 L313.001,45.2261 L318.935,45.2261 L318.935,73.3481 L326.675,73.3481 Z" style="stroke:none;fill-rule:evenodd;fill:#c2996e;fill-opacity:1;"/>
        </g>
        <g id="Shape3">
            <desc shapeID="3" type="0" basicInfo-basicType="0" basicInfo-roundedRectRadius="12" basicInfo-polygonSides="6" basicInfo-starPoints="5" bounding="rect(-145.747,-28.2512,291.494,56.5023)" text="75mm studio" font-familyName="디자인하우스 OTF" font-pixelSize="86" font-bold="0" font-underline="0" font-alignment="1" strokeStyle="0" markerStart="0" markerEnd="0" shadowEnabled="0" shadowOffsetX="0" shadowOffsetY="2" shadowBlur="4" shadowOpacity="160" blurEnabled="0" blurRadius="4" transform="matrix(1,0,0,1,252.852,139.853)" pers-center="0,0" pers-size="0,0" pers-start="0,0" pers-end="0,0" locked="0" mesh="" flag=""/>
            <path id="shapePath3" d="M121.295,153.14 C126.713,154.516 128.433,154.774 128.519,157.01 C128.605,159.504 126.713,161.31 121.897,161.31 C117.597,161.31 113.297,159.762 110.287,157.612 L107.105,163.632 C109.599,165.61 114.587,168.018 122.069,168.018 C133.679,168.018 136.173,161.396 136.173,157.096 C136.173,149.098 130.411,147.894 123.875,146.346 C117.941,144.97 116.221,144.11 116.221,141.53 C116.221,138.864 118.543,137.488 122.413,137.488 C124.907,137.488 126.799,137.918 127.917,138.52 L127.917,142.82 L134.625,142.82 L134.625,134.822 C132.389,132.844 128.777,131.21 122.499,131.21 C114.157,131.21 108.653,135.166 108.653,141.616 C108.653,148.41 112.609,150.818 121.295,153.14 M156.51,138.864 L163.734,138.864 L163.734,156.064 C163.734,164.234 167.174,168.018 174.656,168.018 C177.494,168.018 180.333,167.416 182.139,166.384 C181.623,164.234 181.193,161.912 180.591,159.762 C179.558,160.45 177.666,160.966 176.032,160.966 C172.936,160.966 171.474,159.246 171.474,154.688 L171.474,138.864 L181.193,138.864 L181.193,132.242 L171.474,132.242 L171.474,120.46 L163.734,120.46 L163.734,132.242 L156.51,132.242 L156.51,138.864 M236.837,166.986 L236.837,132.242 L229.097,132.242 L229.097,151.678 C229.097,155.978 225.227,160.708 219.551,160.708 C215.251,160.708 212.757,158.988 212.671,153.828 L212.671,132.242 L205.017,132.242 L205.017,155.032 C205.017,164.578 211.123,168.018 218.605,168.018 C223.421,168.018 227.291,165.696 229.785,162.17 L229.957,166.986 L236.837,166.986 M283.965,111.602 L283.965,118.224 L289.985,118.224 L289.985,136.198 C287.147,132.586 282.675,131.296 278.203,131.296 C267.711,131.296 260.315,139.294 260.315,149.614 C260.315,160.45 267.625,168.018 278.289,168.018 C282.933,168.018 287.491,166.212 289.985,163.03 L290.329,166.986 L297.725,166.986 L297.725,111.602 L283.965,111.602 M290.329,149.614 C290.329,155.376 286.717,161.138 279.149,161.138 C272.785,161.138 268.055,156.494 268.055,149.528 C268.055,142.648 272.613,138.176 279.149,138.176 C286.717,138.176 290.329,143.508 290.329,149.614 M334.052,166.986 L334.052,132.242 L320.378,132.242 L320.378,138.864 L326.312,138.864 L326.312,166.986 L334.052,166.986 M324.42,120.546 C324.42,123.298 326.57,125.706 329.494,125.706 C332.59,125.706 334.654,123.47 334.654,120.546 C334.654,118.052 332.504,115.472 329.494,115.472 C326.398,115.472 324.42,117.45 324.42,120.546 M360.501,149.614 C360.501,159.59 368.585,168.104 379.507,168.104 C390.515,168.104 398.599,159.59 398.599,149.614 C398.599,139.638 390.515,131.296 379.507,131.296 C368.585,131.296 360.501,139.638 360.501,149.614 M368.241,149.614 C368.241,142.39 373.487,138.348 379.507,138.348 C385.527,138.348 390.773,142.39 390.773,149.614 C390.773,156.494 385.613,160.966 379.507,160.966 C373.057,160.966 368.241,156.494 368.241,149.614 Z" style="stroke:none;fill-rule:evenodd;fill:#c2996e;fill-opacity:1;"/>
        </g>
        <g id="Shape4">
            <desc shapeID="4" type="0" basicInfo-basicType="1" basicInfo-roundedRectRadius="12" basicInfo-polygonSides="6" basicInfo-starPoints="5" bounding="rect(-49.9996,-2.89254,99.9992,5.78508)" text="" font-familyName="Helvetica" font-pixelSize="20" font-bold="0" font-underline="0" font-alignment="1" strokeStyle="0" markerStart="0" markerEnd="0" shadowEnabled="0" shadowOffsetX="0" shadowOffsetY="2" shadowBlur="4" shadowOpacity="160" blurEnabled="0" blurRadius="4" transform="matrix(1.22485,0,0,0.581918,254.121,192.196)" pers-center="0,0" pers-size="0,0" pers-start="0,0" pers-end="0,0" locked="0" mesh="" flag=""/>
            <path id="shapePath4" d="M192.879,190.513 L315.363,190.513 L315.363,193.879 L192.879,193.879 L192.879,190.513 Z" style="stroke:none;fill-rule:evenodd;fill:#c2996e;fill-opacity:1;"/>
        </g>
        <g id="Shape5">
            <desc shapeID="5" type="0" basicInfo-basicType="1" basicInfo-roundedRectRadius="12" basicInfo-polygonSides="6" basicInfo-starPoints="5" bounding="rect(-49.9996,-2.89254,99.9992,5.78508)" text="" font-familyName="Helvetica" font-pixelSize="20" font-bold="0" font-underline="0" font-alignment="1" strokeStyle="0" markerStart="0" markerEnd="0" shadowEnabled="0" shadowOffsetX="0" shadowOffsetY="2" shadowBlur="4" shadowOpacity="160" blurEnabled="0" blurRadius="4" transform="matrix(1.22485,0,0,0.581918,254.121,9.45303)" pers-center="0,0" pers-size="0,0" pers-start="0,0" pers-end="0,0" locked="0" mesh="" flag=""/>
            <path id="shapePath5" d="M192.879,7.76981 L315.363,7.76981 L315.363,11.1363 L192.879,11.1363 L192.879,7.76981 Z" style="stroke:none;fill-rule:evenodd;fill:#c2996e;fill-opacity:1;"/>
        </g>
    </g>
</svg>
