<?xml version="1.0"?>
<svg version="1.1" xmlns="http://www.w3.org/2000/svg" xmlns:xlink="http://www.w3.org/1999/xlink" width="512" height="200">
    <desc iVinci="yes" version="4.6" gridStep="20" showGrid="no" snapToGrid="no" codePlatform="0"/>
    <g id="Layer1" name="Layer 2" opacity="1"/>
    <g id="Layer2" name="Layer 1" opacity="1">
        <g id="Shape1">
            <desc shapeID="1" type="0" basicInfo-basicType="0" basicInfo-roundedRectRadius="12" basicInfo-polygonSides="6" basicInfo-starPoints="5" bounding="rect(-218.049,-32.809,436.098,65.618)" text="75mm studio" font-familyName="디자인하우스 OTF" font-pixelSize="86" font-bold="0" font-underline="0" font-alignment="1" strokeStyle="0" markerStart="0" markerEnd="0" shadowEnabled="0" shadowOffsetX="0" shadowOffsetY="2" shadowBlur="4" shadowOpacity="160" blurEnabled="0" blurRadius="4" transform="matrix(1,0,0,1,261.88,100)" pers-center="0,0" pers-size="0,0" pers-start="0,0" pers-end="0,0" locked="0" mesh="" flag=""/>
            <path id="shapePath1" d="M43.831,95.657 L50.539,95.657 L50.539,87.745 L67.137,87.745 L47.873,129.885 C50.281,130.917 52.517,131.777 54.839,132.809 C61.719,117.759 68.599,102.795 75.393,87.745 L75.393,81.123 L43.831,81.123 L43.831,95.657 M84.4122,105.203 L90.0022,107.783 C91.4642,106.149 93.8722,105.031 96.9682,105.031 C102.644,105.031 107.374,108.299 107.374,114.577 C107.374,120.597 103.246,124.639 97.4842,124.639 C92.7542,124.639 88.7982,121.973 86.3902,117.501 L80.7142,121.027 C83.8102,127.649 90.2602,131.605 97.8282,131.605 C106.858,131.605 114.942,124.983 114.942,114.577 C114.942,105.289 107.804,98.495 98.6022,98.495 C96.3662,98.495 94.1302,98.925 93.0122,99.269 L95.7642,87.831 L111.588,87.831 L111.588,81.123 L90.2602,81.123 L84.4122,105.203 M134.192,122.575 L134.192,103.311 C134.364,99.097 137.546,94.195 142.276,94.195 C146.404,94.195 147.952,96.517 147.952,101.247 L147.952,122.575 L155.692,122.575 L155.692,103.311 C155.864,99.097 159.046,94.195 163.776,94.195 C167.904,94.195 169.452,96.517 169.452,101.247 L169.452,122.575 L177.192,122.575 L177.192,100.301 C177.192,90.669 172.548,86.885 165.582,86.885 C160.25,86.885 156.81,89.723 154.488,93.335 C152.768,88.777 148.984,86.885 144.082,86.885 C139.18,86.885 135.74,89.379 133.418,92.647 L133.246,87.831 L120.518,87.831 L120.518,94.453 L126.452,94.453 L126.452,122.575 L134.192,122.575 M197.301,122.575 L197.301,103.311 C197.473,99.097 200.655,94.195 205.385,94.195 C209.513,94.195 211.061,96.517 211.061,101.247 L211.061,122.575 L218.801,122.575 L218.801,103.311 C218.973,99.097 222.155,94.195 226.885,94.195 C231.013,94.195 232.561,96.517 232.561,101.247 L232.561,122.575 L240.301,122.575 L240.301,100.301 C240.301,90.669 235.657,86.885 228.691,86.885 C223.359,86.885 219.919,89.723 217.597,93.335 C215.877,88.777 212.093,86.885 207.191,86.885 C202.289,86.885 198.849,89.379 196.527,92.647 L196.355,87.831 L183.627,87.831 L183.627,94.453 L189.561,94.453 L189.561,122.575 L197.301,122.575 M285.005,108.729 C290.423,110.105 292.143,110.363 292.229,112.599 C292.315,115.093 290.423,116.899 285.607,116.899 C281.307,116.899 277.007,115.351 273.997,113.201 L270.815,119.221 C273.309,121.199 278.297,123.607 285.779,123.607 C297.389,123.607 299.883,116.985 299.883,112.685 C299.883,104.687 294.121,103.483 287.585,101.935 C281.651,100.559 279.931,99.699 279.931,97.119 C279.931,94.453 282.253,93.077 286.123,93.077 C288.617,93.077 290.509,93.507 291.627,94.109 L291.627,98.409 L298.335,98.409 L298.335,90.411 C296.099,88.433 292.487,86.799 286.209,86.799 C277.867,86.799 272.363,90.755 272.363,97.205 C272.363,103.999 276.319,106.407 285.005,108.729 M303.236,94.453 L310.46,94.453 L310.46,111.653 C310.46,119.823 313.9,123.607 321.382,123.607 C324.22,123.607 327.058,123.005 328.864,121.973 C328.348,119.823 327.918,117.501 327.316,115.351 C326.284,116.039 324.392,116.555 322.758,116.555 C319.662,116.555 318.2,114.835 318.2,110.277 L318.2,94.453 L327.918,94.453 L327.918,87.831 L318.2,87.831 L318.2,76.049 L310.46,76.049 L310.46,87.831 L303.236,87.831 L303.236,94.453 M366.691,122.575 L366.691,87.831 L358.951,87.831 L358.951,107.267 C358.951,111.567 355.081,116.297 349.405,116.297 C345.105,116.297 342.611,114.577 342.525,109.417 L342.525,87.831 L334.871,87.831 L334.871,110.621 C334.871,120.167 340.977,123.607 348.459,123.607 C353.275,123.607 357.145,121.285 359.639,117.759 L359.811,122.575 L366.691,122.575 M398.591,67.191 L398.591,73.813 L404.611,73.813 L404.611,91.787 C401.773,88.175 397.301,86.885 392.829,86.885 C382.337,86.885 374.941,94.883 374.941,105.203 C374.941,116.039 382.251,123.607 392.915,123.607 C397.559,123.607 402.117,121.801 404.611,118.619 L404.955,122.575 L412.351,122.575 L412.351,67.191 L398.591,67.191 M404.955,105.203 C404.955,110.965 401.343,116.727 393.775,116.727 C387.411,116.727 382.681,112.083 382.681,105.117 C382.681,98.237 387.239,93.765 393.775,93.765 C401.343,93.765 404.955,99.097 404.955,105.203 M432.895,122.575 L432.895,87.831 L419.221,87.831 L419.221,94.453 L425.155,94.453 L425.155,122.575 L432.895,122.575 M423.263,76.135 C423.263,78.887 425.413,81.295 428.337,81.295 C431.433,81.295 433.497,79.059 433.497,76.135 C433.497,73.641 431.347,71.061 428.337,71.061 C425.241,71.061 423.263,73.039 423.263,76.135 M441.831,105.203 C441.831,115.179 449.915,123.693 460.837,123.693 C471.845,123.693 479.929,115.179 479.929,105.203 C479.929,95.227 471.845,86.885 460.837,86.885 C449.915,86.885 441.831,95.227 441.831,105.203 M449.571,105.203 C449.571,97.979 454.817,93.937 460.837,93.937 C466.857,93.937 472.103,97.979 472.103,105.203 C472.103,112.083 466.943,116.555 460.837,116.555 C454.387,116.555 449.571,112.083 449.571,105.203 Z" style="stroke:none;fill-rule:nonzero;fill:#ffffff;fill-opacity:1;"/>
        </g>
    </g>
</svg>
