<?xml version="1.0"?>
<svg version="1.1" xmlns="http://www.w3.org/2000/svg" xmlns:xlink="http://www.w3.org/1999/xlink" width="640" height="360">
    <desc iVinci="yes" version="4.6" gridStep="20" showGrid="no" snapToGrid="no" codePlatform="0"/>
    <g id="Layer1" name="black" opacity="1">
        <g id="Shape1">
            <desc shapeID="1" type="0" basicInfo-basicType="0" basicInfo-roundedRectRadius="12" basicInfo-polygonSides="6" basicInfo-starPoints="5" bounding="rect(-295.269,-23.051,590.537,46.102)" text="www.75mm.studio" font-familyName="나눔스퀘어" font-pixelSize="50" font-bold="0" font-underline="0" font-alignment="1" strokeStyle="0" markerStart="0" markerEnd="0" shadowEnabled="0" shadowOffsetX="0" shadowOffsetY="2" shadowBlur="4" shadowOpacity="160" blurEnabled="0" blurRadius="4" transform="matrix(1,0,0,1,320.062,315.872)" pers-center="0,0" pers-size="0,0" pers-start="0,0" pers-end="0,0" locked="0" mesh="" flag=""/>
            <path id="shapePath1" d="M32.1429,330.923 L24.7928,303.973 L28.2429,303.973 L34.1928,327.523 L40.7928,303.973 L44.6429,303.973 L51.3929,327.523 L57.1928,303.973 L60.4929,303.973 L53.2928,330.923 L49.3428,330.923 L42.6429,307.773 L36.0928,330.923 L32.1429,330.923 M82.3803,330.773 L75.0303,303.823 L78.4803,303.823 L84.4303,327.373 L91.0303,303.823 L94.8803,303.823 L101.63,327.373 L107.43,303.823 L110.73,303.823 L103.53,330.773 L99.5803,330.773 L92.8803,307.623 L86.3303,330.773 L82.3803,330.773 M132.568,330.923 L125.218,303.973 L128.668,303.973 L134.618,327.523 L141.218,303.973 L145.068,303.973 L151.818,327.523 L157.618,303.973 L160.918,303.973 L153.718,330.923 L149.768,330.923 L143.068,307.773 L136.518,330.923 L132.568,330.923 M176.334,326.646 L181.384,326.646 L181.384,331.646 L176.334,331.646 L176.334,326.646 M210.015,337.848 L206.065,337.848 L220.715,304.998 L200.465,304.998 L200.465,301.798 L224.615,301.798 L224.615,304.498 L210.015,337.848 M262.064,327.523 C262.064,324.623 261.355,322.515 259.939,321.198 C258.522,319.881 256.514,319.223 253.914,319.223 C252.38,319.223 251.014,319.506 249.814,320.073 C248.614,320.64 247.614,321.306 246.814,322.073 L243.514,322.073 L244.664,302.323 L263.214,302.323 L263.214,305.523 L247.764,305.523 L247.214,318.623 C248.014,317.856 249.097,317.24 250.464,316.773 C251.83,316.306 253.264,316.073 254.764,316.073 C256.53,316.073 258.089,316.365 259.439,316.948 C260.789,317.531 261.914,318.323 262.814,319.323 C263.714,320.323 264.389,321.515 264.839,322.898 C265.289,324.281 265.514,325.773 265.514,327.373 L265.514,328.123 C265.514,329.423 265.297,330.715 264.864,331.998 C264.43,333.281 263.739,334.431 262.789,335.448 C261.839,336.465 260.58,337.298 259.014,337.948 C257.447,338.598 255.547,338.923 253.314,338.923 C250.847,338.923 248.68,338.565 246.814,337.848 C244.947,337.131 243.214,336.156 241.614,334.923 L243.414,332.073 C245.147,333.406 246.805,334.348 248.389,334.898 C249.972,335.448 251.614,335.723 253.314,335.723 C254.914,335.723 256.272,335.481 257.389,334.998 C258.505,334.515 259.414,333.906 260.114,333.173 C260.814,332.44 261.314,331.631 261.614,330.748 C261.914,329.865 262.064,329.006 262.064,328.173 L262.064,327.523 M312.398,303.023 C315.464,303.023 317.706,303.856 319.122,305.523 C320.539,307.19 321.247,309.456 321.247,312.323 L321.247,330.473 L317.848,330.473 L317.848,313.223 C317.848,312.123 317.756,311.14 317.573,310.273 C317.389,309.406 317.073,308.665 316.622,308.048 C316.173,307.431 315.556,306.956 314.773,306.623 C313.989,306.29 312.997,306.123 311.798,306.123 C310.698,306.123 309.731,306.323 308.898,306.723 C308.064,307.123 307.356,307.64 306.773,308.273 C306.189,308.906 305.739,309.623 305.423,310.423 C305.106,311.223 304.931,312.006 304.898,312.773 L304.898,330.473 L301.497,330.473 L301.497,313.223 C301.497,312.123 301.406,311.14 301.223,310.273 C301.039,309.406 300.723,308.665 300.273,308.048 C299.823,307.431 299.206,306.956 298.423,306.623 C297.639,306.29 296.648,306.123 295.448,306.123 C294.348,306.123 293.364,306.331 292.497,306.748 C291.631,307.165 290.906,307.706 290.323,308.373 C289.739,309.04 289.298,309.773 288.997,310.573 C288.698,311.373 288.548,312.173 288.548,312.973 L288.548,330.473 L285.148,330.473 L285.148,303.523 L288.497,303.523 L288.497,307.273 C288.798,306.74 289.173,306.215 289.622,305.698 C290.073,305.181 290.614,304.723 291.247,304.323 C291.881,303.923 292.589,303.606 293.372,303.373 C294.156,303.14 295.048,303.023 296.048,303.023 C298.214,303.023 299.964,303.448 301.298,304.298 C302.631,305.148 303.598,306.356 304.198,307.923 C304.497,307.356 304.889,306.781 305.372,306.198 C305.856,305.615 306.439,305.09 307.122,304.623 C307.806,304.156 308.589,303.773 309.473,303.473 C310.356,303.173 311.331,303.023 312.398,303.023 M367.338,302.598 C370.405,302.598 372.646,303.432 374.063,305.098 C375.48,306.765 376.188,309.031 376.188,311.898 L376.188,330.048 L372.788,330.048 L372.788,312.798 C372.788,311.698 372.696,310.715 372.513,309.848 C372.33,308.981 372.013,308.24 371.563,307.623 C371.113,307.006 370.496,306.531 369.713,306.198 C368.93,305.865 367.938,305.698 366.738,305.698 C365.638,305.698 364.672,305.898 363.838,306.298 C363.005,306.698 362.297,307.215 361.713,307.848 C361.13,308.481 360.68,309.198 360.363,309.998 C360.047,310.798 359.871,311.581 359.838,312.348 L359.838,330.048 L356.438,330.048 L356.438,312.798 C356.438,311.698 356.346,310.715 356.163,309.848 C355.98,308.981 355.663,308.24 355.213,307.623 C354.763,307.006 354.146,306.531 353.363,306.198 C352.58,305.865 351.588,305.698 350.388,305.698 C349.288,305.698 348.305,305.906 347.438,306.323 C346.571,306.74 345.846,307.281 345.263,307.948 C344.68,308.615 344.238,309.348 343.938,310.148 C343.638,310.948 343.488,311.748 343.488,312.548 L343.488,330.048 L340.088,330.048 L340.088,303.098 L343.438,303.098 L343.438,306.848 C343.738,306.315 344.113,305.79 344.563,305.273 C345.013,304.756 345.555,304.298 346.188,303.898 C346.821,303.498 347.53,303.182 348.313,302.948 C349.096,302.715 349.988,302.598 350.988,302.598 C353.155,302.598 354.905,303.023 356.238,303.873 C357.571,304.723 358.538,305.932 359.138,307.498 C359.438,306.932 359.83,306.356 360.313,305.773 C360.797,305.19 361.38,304.665 362.063,304.198 C362.746,303.731 363.53,303.348 364.413,303.048 C365.297,302.748 366.271,302.598 367.338,302.598 M395.275,326.498 L400.325,326.498 L400.325,331.498 L395.275,331.498 L395.275,326.498 M428.644,327.421 C430.844,327.421 432.511,326.988 433.644,326.121 C434.778,325.254 435.344,324.238 435.344,323.071 L435.344,322.571 C435.344,321.204 434.786,320.171 433.669,319.471 C432.553,318.771 430.694,318.171 428.094,317.671 C426.728,317.404 425.494,317.088 424.394,316.721 C423.294,316.354 422.361,315.888 421.594,315.321 C420.828,314.754 420.228,314.079 419.794,313.296 C419.361,312.513 419.144,311.571 419.144,310.471 L419.144,309.771 C419.144,308.804 419.344,307.888 419.744,307.021 C420.144,306.154 420.744,305.396 421.544,304.746 C422.344,304.096 423.353,303.579 424.569,303.196 C425.786,302.813 427.228,302.621 428.894,302.621 C430.961,302.621 432.744,302.879 434.244,303.396 C435.744,303.913 437.044,304.588 438.144,305.421 L436.594,307.971 C435.461,307.204 434.311,306.621 433.144,306.221 C431.978,305.821 430.528,305.621 428.794,305.621 C426.761,305.621 425.211,306.029 424.144,306.846 C423.078,307.663 422.544,308.654 422.544,309.821 L422.544,310.371 C422.544,311.538 423.136,312.454 424.319,313.121 C425.503,313.788 427.161,314.321 429.294,314.721 C432.628,315.354 435.036,316.254 436.519,317.421 C438.003,318.588 438.744,320.254 438.744,322.421 L438.744,323.171 C438.744,324.238 438.494,325.221 437.994,326.121 C437.494,327.021 436.803,327.796 435.919,328.446 C435.036,329.096 433.994,329.596 432.794,329.946 C431.594,330.296 430.278,330.471 428.844,330.471 C426.644,330.471 424.686,330.179 422.969,329.596 C421.253,329.013 419.761,328.254 418.494,327.321 L420.144,324.621 C421.378,325.454 422.703,326.129 424.119,326.646 C425.536,327.163 427.044,327.421 428.644,327.421 M459.169,306.148 L454.569,306.148 L454.569,303.248 L459.169,303.248 L459.169,296.298 L462.569,296.298 L462.569,303.248 L470.019,303.248 L470.019,306.148 L462.569,306.148 L462.569,322.548 C462.569,324.382 462.861,325.665 463.444,326.398 C464.028,327.132 465.003,327.498 466.369,327.498 C467.703,327.498 468.969,327.332 470.169,326.998 L470.669,329.798 C470.136,329.998 469.428,330.157 468.544,330.273 C467.661,330.39 466.853,330.448 466.119,330.448 C464.953,330.448 463.928,330.315 463.044,330.048 C462.161,329.782 461.436,329.348 460.869,328.748 C460.303,328.148 459.878,327.357 459.594,326.373 C459.311,325.39 459.169,324.165 459.169,322.698 L459.169,306.148 M497.535,331.021 C494.468,331.021 492.135,330.171 490.535,328.471 C488.935,326.771 488.135,324.521 488.135,321.721 L488.135,303.671 L491.535,303.671 L491.535,320.871 C491.535,321.838 491.627,322.746 491.81,323.596 C491.993,324.446 492.318,325.196 492.785,325.846 C493.252,326.496 493.91,327.004 494.76,327.371 C495.61,327.738 496.702,327.921 498.035,327.921 C499.168,327.921 500.21,327.721 501.16,327.321 C502.11,326.921 502.927,326.396 503.61,325.746 C504.293,325.096 504.827,324.371 505.21,323.571 C505.593,322.771 505.785,321.971 505.785,321.171 L505.785,303.671 L509.185,303.671 L509.185,330.621 L505.835,330.621 L505.835,326.871 C505.202,327.904 504.193,328.854 502.81,329.721 C501.427,330.588 499.668,331.021 497.535,331.021 M546.476,327.071 L546.426,327.071 C545.659,328.438 544.526,329.438 543.026,330.071 C541.526,330.704 539.992,331.021 538.426,331.021 C536.859,331.021 535.426,330.763 534.126,330.246 C532.826,329.729 531.692,328.979 530.726,327.996 C529.759,327.013 529.009,325.804 528.476,324.371 C527.942,322.938 527.676,321.304 527.676,319.471 L527.676,314.721 C527.676,312.888 527.942,311.254 528.476,309.821 C529.009,308.388 529.751,307.179 530.701,306.196 C531.651,305.213 532.784,304.463 534.101,303.946 C535.417,303.429 536.842,303.171 538.376,303.171 C540.376,303.171 542.042,303.554 543.376,304.321 C544.709,305.088 545.726,305.971 546.426,306.971 L546.426,292.821 L549.826,292.821 L549.826,330.621 L546.476,330.621 L546.476,327.071 M531.076,318.971 C531.076,321.871 531.759,324.104 533.126,325.671 C534.492,327.238 536.309,328.021 538.576,328.021 C539.676,328.021 540.701,327.879 541.651,327.596 C542.601,327.313 543.426,326.879 544.126,326.296 C544.826,325.713 545.384,324.979 545.801,324.096 C546.217,323.213 546.426,322.171 546.426,320.971 L546.426,312.871 C546.426,312.071 546.234,311.279 545.851,310.496 C545.467,309.713 544.926,308.996 544.226,308.346 C543.526,307.696 542.692,307.171 541.726,306.771 C540.759,306.371 539.709,306.171 538.576,306.171 C536.276,306.171 534.451,306.963 533.101,308.546 C531.751,310.129 531.076,312.354 531.076,315.221 L531.076,318.971 M569.987,303.523 L573.387,303.523 L573.387,330.473 L569.987,330.473 L569.987,303.523 M569.837,294.573 L573.537,294.573 L573.537,298.373 L569.837,298.373 L569.837,294.573 M603.88,302.898 C607.513,302.898 610.33,303.965 612.33,306.098 C614.33,308.231 615.33,311.248 615.33,315.148 L615.33,318.498 C615.33,322.398 614.33,325.415 612.33,327.548 C610.33,329.681 607.513,330.748 603.88,330.748 C600.247,330.748 597.43,329.681 595.43,327.548 C593.43,325.415 592.43,322.398 592.43,318.498 L592.43,315.148 C592.43,311.215 593.43,308.19 595.43,306.073 C597.43,303.956 600.247,302.898 603.88,302.898 M603.88,327.748 C606.38,327.748 608.338,326.973 609.755,325.423 C611.172,323.873 611.88,321.498 611.88,318.298 L611.88,315.348 C611.88,312.148 611.172,309.773 609.755,308.223 C608.338,306.673 606.38,305.898 603.88,305.898 C601.38,305.898 599.422,306.673 598.005,308.223 C596.588,309.773 595.88,312.148 595.88,315.348 L595.88,318.298 C595.88,321.498 596.588,323.873 598.005,325.423 C599.422,326.973 601.38,327.748 603.88,327.748 Z" style="stroke:none;fill-rule:evenodd;fill:#ffffff;fill-opacity:1;"/>
        </g>
        <g id="Shape2">
            <desc shapeID="2" type="0" basicInfo-basicType="0" basicInfo-roundedRectRadius="12" basicInfo-polygonSides="6" basicInfo-starPoints="5" bounding="rect(-155.677,-117.486,311.355,234.972)" text="75" font-familyName="나눔스퀘어" font-pixelSize="321" font-bold="0" font-underline="0" font-alignment="1" strokeStyle="0" markerStart="0" markerEnd="0" shadowEnabled="0" shadowOffsetX="0" shadowOffsetY="2" shadowBlur="4" shadowOpacity="160" blurEnabled="0" blurRadius="4" transform="matrix(1,0,0,1,177.24,138.563)" pers-center="0,0" pers-size="0,0" pers-start="0,0" pers-end="0,0" locked="0" mesh="" flag=""/>
            <path id="shapePath2" d="M75.4907,252.839 L59.7617,252.839 L157.346,34.5594 L21.5627,34.5594 L21.5627,21.3984 L173.075,21.3984 L173.075,31.3494 L75.4907,252.839 M318.794,182.861 C318.794,162.745 313.765,148.086 303.707,138.884 C293.649,129.682 279.418,125.081 261.014,125.081 C249.244,125.081 239.453,127.221 231.642,131.501 C223.831,135.781 217.144,140.703 211.58,146.267 L195.53,146.267 L202.913,21.0774 L318.473,21.0774 L318.473,34.2384 L215.753,34.2384 L210.296,132.143 C215.86,126.579 223.243,121.818 232.445,117.859 C241.647,113.9 251.705,111.92 262.619,111.92 C272.891,111.92 282.307,113.418 290.867,116.414 C299.427,119.41 306.863,123.797 313.176,129.575 C319.489,135.353 324.358,142.629 327.782,151.403 C331.206,160.177 332.918,170.342 332.918,181.898 L332.918,187.997 C332.918,195.701 331.634,203.619 329.066,211.751 C326.498,219.883 322.218,227.213 316.226,233.74 C310.234,240.267 302.369,245.617 292.632,249.79 C282.895,253.963 270.965,256.049 256.841,256.049 C243.359,256.049 230.358,253.963 217.839,249.79 C205.32,245.617 193.604,239.143 182.69,230.369 L190.715,218.492 C201.843,227.48 213.078,233.793 224.42,237.431 C235.762,241.069 246.569,242.888 256.841,242.888 C268.611,242.888 278.455,241.069 286.373,237.431 C294.291,233.793 300.657,229.246 305.472,223.789 C310.287,218.332 313.711,212.447 315.744,206.134 C317.777,199.821 318.794,193.882 318.794,188.318 L318.794,182.861 Z" style="stroke:none;fill-rule:nonzero;fill:#ffffff;fill-opacity:1;"/>
        </g>
        <g id="Shape3">
            <desc shapeID="3" type="0" basicInfo-basicType="2" basicInfo-roundedRectRadius="5" basicInfo-polygonSides="6" basicInfo-starPoints="5" bounding="rect(-13.4666,-67.8057,26.9333,135.611)" text="" font-familyName="나눔스퀘어" font-pixelSize="321" font-bold="0" font-underline="0" font-alignment="1" strokeStyle="0" markerStart="0" markerEnd="0" shadowEnabled="0" shadowOffsetX="0" shadowOffsetY="2" shadowBlur="4" shadowOpacity="160" blurEnabled="0" blurRadius="4" transform="matrix(0.978593,0,0,1,378.077,190.034)" pers-center="0,0" pers-size="0,0" pers-start="0,0" pers-end="0,0" locked="0" mesh="" flag=""/>
            <path id="shapePath3" d="M364.898,127.229 C364.898,124.467 367.089,122.229 369.791,122.229 L386.362,122.229 C389.065,122.229 391.255,124.467 391.255,127.229 L391.255,252.84 C391.255,255.601 389.065,257.84 386.362,257.84 L369.791,257.84 C367.089,257.84 364.898,255.601 364.898,252.84 L364.898,127.229 Z" style="stroke:none;fill-rule:evenodd;fill:#ffffff;fill-opacity:1;"/>
        </g>
        <g id="Shape4">
            <desc shapeID="4" type="0" basicInfo-basicType="2" basicInfo-roundedRectRadius="5" basicInfo-polygonSides="6" basicInfo-starPoints="5" bounding="rect(-13.4666,-67.8057,26.9333,135.611)" text="" font-familyName="나눔스퀘어" font-pixelSize="321" font-bold="0" font-underline="0" font-alignment="1" strokeStyle="0" markerStart="0" markerEnd="0" shadowEnabled="0" shadowOffsetX="0" shadowOffsetY="2" shadowBlur="4" shadowOpacity="160" blurEnabled="0" blurRadius="4" transform="matrix(0.978593,0,0,0.928195,421.797,194.903)" pers-center="0,0" pers-size="0,0" pers-start="0,0" pers-end="0,0" locked="0" mesh="" flag=""/>
            <path id="shapePath4" d="M408.619,136.607 C408.619,134.044 410.81,131.966 413.512,131.966 L430.083,131.966 C432.785,131.966 434.976,134.044 434.976,136.607 L434.976,253.199 C434.976,255.762 432.785,257.84 430.083,257.84 L413.512,257.84 C410.81,257.84 408.619,255.762 408.619,253.199 L408.619,136.607 Z" style="stroke:none;fill-rule:evenodd;fill:#ffffff;fill-opacity:1;"/>
        </g>
        <g id="Shape5">
            <desc shapeID="5" type="0" basicInfo-basicType="2" basicInfo-roundedRectRadius="5" basicInfo-polygonSides="6" basicInfo-starPoints="5" bounding="rect(-13.4666,-67.8057,26.9333,135.611)" text="" font-familyName="나눔스퀘어" font-pixelSize="321" font-bold="0" font-underline="0" font-alignment="1" strokeStyle="0" markerStart="0" markerEnd="0" shadowEnabled="0" shadowOffsetX="0" shadowOffsetY="2" shadowBlur="4" shadowOpacity="160" blurEnabled="0" blurRadius="4" transform="matrix(0.978593,0,0,0.848412,464.943,200.313)" pers-center="0,0" pers-size="0,0" pers-start="0,0" pers-end="0,0" locked="0" mesh="" flag=""/>
            <path id="shapePath5" d="M451.765,147.028 C451.765,144.685 453.956,142.786 456.658,142.786 L473.229,142.786 C475.931,142.786 478.122,144.685 478.122,147.028 L478.122,253.598 C478.122,255.941 475.931,257.84 473.229,257.84 L456.658,257.84 C453.956,257.84 451.765,255.941 451.765,253.598 L451.765,147.028 Z" style="stroke:none;fill-rule:evenodd;fill:#ffffff;fill-opacity:1;"/>
        </g>
        <g id="Shape6">
            <desc shapeID="6" type="0" basicInfo-basicType="2" basicInfo-roundedRectRadius="5" basicInfo-polygonSides="6" basicInfo-starPoints="5" bounding="rect(-13.4666,-67.8057,26.9333,135.611)" text="" font-familyName="나눔스퀘어" font-pixelSize="321" font-bold="0" font-underline="0" font-alignment="1" strokeStyle="0" markerStart="0" markerEnd="0" shadowEnabled="0" shadowOffsetX="0" shadowOffsetY="2" shadowBlur="4" shadowOpacity="160" blurEnabled="0" blurRadius="4" transform="matrix(0.978593,0,0,1,515.285,190.034)" pers-center="0,0" pers-size="0,0" pers-start="0,0" pers-end="0,0" locked="0" mesh="" flag=""/>
            <path id="shapePath6" d="M502.107,127.229 C502.107,124.467 504.298,122.229 507,122.229 L523.571,122.229 C526.273,122.229 528.464,124.467 528.464,127.229 L528.464,252.84 C528.464,255.601 526.273,257.84 523.571,257.84 L507,257.84 C504.298,257.84 502.107,255.601 502.107,252.84 L502.107,127.229 Z" style="stroke:none;fill-rule:evenodd;fill:#ffffff;fill-opacity:1;"/>
        </g>
        <g id="Shape7">
            <desc shapeID="7" type="0" basicInfo-basicType="2" basicInfo-roundedRectRadius="5" basicInfo-polygonSides="6" basicInfo-starPoints="5" bounding="rect(-13.4666,-67.8057,26.9333,135.611)" text="" font-familyName="나눔스퀘어" font-pixelSize="321" font-bold="0" font-underline="0" font-alignment="1" strokeStyle="0" markerStart="0" markerEnd="0" shadowEnabled="0" shadowOffsetX="0" shadowOffsetY="2" shadowBlur="4" shadowOpacity="160" blurEnabled="0" blurRadius="4" transform="matrix(0.978593,0,0,0.928195,559.006,194.903)" pers-center="0,0" pers-size="0,0" pers-start="0,0" pers-end="0,0" locked="0" mesh="" flag=""/>
            <path id="shapePath7" d="M545.828,136.607 C545.828,134.044 548.018,131.966 550.72,131.966 L567.291,131.966 C569.994,131.966 572.184,134.044 572.184,136.607 L572.184,253.199 C572.184,255.762 569.994,257.84 567.291,257.84 L550.72,257.84 C548.018,257.84 545.828,255.762 545.828,253.199 L545.828,136.607 Z" style="stroke:none;fill-rule:evenodd;fill:#ffffff;fill-opacity:1;"/>
        </g>
        <g id="Shape8">
            <desc shapeID="8" type="0" basicInfo-basicType="2" basicInfo-roundedRectRadius="5" basicInfo-polygonSides="6" basicInfo-starPoints="5" bounding="rect(-13.4666,-67.8057,26.9333,135.611)" text="" font-familyName="나눔스퀘어" font-pixelSize="321" font-bold="0" font-underline="0" font-alignment="1" strokeStyle="0" markerStart="0" markerEnd="0" shadowEnabled="0" shadowOffsetX="0" shadowOffsetY="2" shadowBlur="4" shadowOpacity="160" blurEnabled="0" blurRadius="4" transform="matrix(0.978593,0,0,0.848412,602.151,200.313)" pers-center="0,0" pers-size="0,0" pers-start="0,0" pers-end="0,0" locked="0" mesh="" flag=""/>
            <path id="shapePath8" d="M588.973,147.028 C588.973,144.685 591.164,142.786 593.866,142.786 L610.437,142.786 C613.139,142.786 615.33,144.685 615.33,147.028 L615.33,253.598 C615.33,255.941 613.139,257.84 610.437,257.84 L593.866,257.84 C591.164,257.84 588.973,255.941 588.973,253.598 L588.973,147.028 Z" style="stroke:none;fill-rule:evenodd;fill:#ffffff;fill-opacity:1;"/>
        </g>
    </g>
</svg>
