<?xml version="1.0"?>
<svg version="1.1" xmlns="http://www.w3.org/2000/svg" xmlns:xlink="http://www.w3.org/1999/xlink" width="30" height="30">
    <desc iVinci="yes" version="4.6" gridStep="20" showGrid="no" snapToGrid="no" codePlatform="0"/>
    <g id="Layer1" name="Layer 2" opacity="1">
        <g id="Shape1">
            <desc shapeID="1" type="0" basicInfo-basicType="0" basicInfo-roundedRectRadius="12" basicInfo-polygonSides="6" basicInfo-starPoints="5" bounding="rect(-23.4355,-36.5263,46.8709,73.0525)" text="" font-familyName="Helvetica" font-pixelSize="20" font-bold="0" font-underline="0" font-alignment="1" strokeStyle="0" markerStart="0" markerEnd="0" shadowEnabled="0" shadowOffsetX="0" shadowOffsetY="2" shadowBlur="4" shadowOpacity="160" blurEnabled="0" blurRadius="4" transform="matrix(0.21056,0,0,0.21056,8.3914,15)" pers-center="0,0" pers-size="0,0" pers-start="0,0" pers-end="0,0" locked="0" mesh="" flag=""/>
            <path id="shapePath1" d="M3.49864,17.8479 C3.4216,17.1304 3.22521,14.1172 5.39904,11.4731 C7.43083,9.00167 11.5583,6.96125 12.1955,7.35881 C12.3844,7.47666 12.4555,7.65022 12.1955,8.02977 C11.7965,8.61225 10.6572,9.25509 9.98823,10.1278 C8.8833,11.5693 8.3058,13.0049 8.89874,13.0049 C11.5735,13.0049 13.326,15.1732 13.326,17.8479 C13.326,20.5227 11.1577,22.691 8.48293,22.691 C5.80819,22.691 3.7842,20.5074 3.49864,17.8479 Z" style="stroke:none;fill-rule:evenodd;fill:#daac69;fill-opacity:1;"/>
        </g>
        <g id="Shape2">
            <desc shapeID="2" type="0" basicInfo-basicType="0" basicInfo-roundedRectRadius="12" basicInfo-polygonSides="6" basicInfo-starPoints="5" bounding="rect(-23.4355,-36.5263,46.8709,73.0525)" text="" font-familyName="Helvetica" font-pixelSize="20" font-bold="0" font-underline="0" font-alignment="1" strokeStyle="0" markerStart="0" markerEnd="0" shadowEnabled="0" shadowOffsetX="0" shadowOffsetY="2" shadowBlur="4" shadowOpacity="160" blurEnabled="0" blurRadius="4" transform="matrix(0.21056,0,0,0.21056,21.6086,15)" pers-center="0,0" pers-size="0,0" pers-start="0,0" pers-end="0,0" locked="0" mesh="" flag=""/>
            <path id="shapePath2" d="M16.7158,17.8479 C16.6388,17.1304 16.4424,14.1172 18.6162,11.4731 C20.648,9.00167 24.7755,6.96125 25.4127,7.35881 C25.6016,7.47666 25.6727,7.65022 25.4127,8.02977 C25.0137,8.61225 23.8744,9.25509 23.2054,10.1278 C22.1005,11.5693 21.523,13.0049 22.1159,13.0049 C24.7907,13.0049 26.5432,15.1732 26.5432,17.8479 C26.5432,20.5227 24.3749,22.691 21.7001,22.691 C19.0254,22.691 17.0014,20.5074 16.7158,17.8479 Z" style="stroke:none;fill-rule:evenodd;fill:#daac69;fill-opacity:1;"/>
        </g>
    </g>
</svg>
