<?xml version="1.0"?>
<svg version="1.1" xmlns="http://www.w3.org/2000/svg" xmlns:xlink="http://www.w3.org/1999/xlink" width="100" height="100">
    <desc iVinci="yes" version="4.6" gridStep="20" showGrid="no" snapToGrid="no" codePlatform="0"/>
    <g id="Layer1" name="Layer 2" opacity="1">
        <g id="Shape1">
            <desc shapeID="1" type="0" basicInfo-basicType="2" basicInfo-roundedRectRadius="12" basicInfo-polygonSides="6" basicInfo-starPoints="5" bounding="rect(-49.9188,-50.0516,99.8377,100.103)" text="" font-familyName="Helvetica" font-pixelSize="20" font-bold="0" font-underline="0" font-alignment="1" strokeStyle="0" markerStart="0" markerEnd="0" shadowEnabled="0" shadowOffsetX="0" shadowOffsetY="2" shadowBlur="4" shadowOpacity="160" blurEnabled="0" blurRadius="4" transform="matrix(1.00163,0,0,1.00029,50,50.0663)" pers-center="0,0" pers-size="0,0" pers-start="0,0" pers-end="0,0" locked="0" mesh="" flag=""/>
            <path id="shapePath1" d="M0,12.0035 C0,5.37417 5.38132,7.62939e-06 12.0195,7.62939e-06 L87.9805,7.62939e-06 C94.6187,7.62939e-06 100,5.37417 100,12.0035 L100,88.1291 C100,94.7585 94.6187,100.133 87.9805,100.133 L12.0195,100.133 C5.38132,100.133 0,94.7585 0,88.1291 L0,12.0035 Z" style="stroke:none;fill-rule:evenodd;fill:#333338;fill-opacity:1;"/>
        </g>
    </g>
    <g id="Layer2" name="Layer 1" opacity="1">
        <g id="Shape2">
            <desc shapeID="2" type="0" basicInfo-basicType="0" basicInfo-roundedRectRadius="12" basicInfo-polygonSides="6" basicInfo-starPoints="5" bounding="rect(-106.088,-25.843,212.176,51.6861)" text="75mm studio" font-familyName="디자인하우스 OTF" font-pixelSize="86" font-bold="0" font-underline="0" font-alignment="1" strokeStyle="0" markerStart="0" markerEnd="0" shadowEnabled="0" shadowOffsetX="0" shadowOffsetY="2" shadowBlur="4" shadowOpacity="160" blurEnabled="0" blurRadius="4" transform="matrix(0.293361,0,0,0.293361,50.0003,36.094)" pers-center="0,0" pers-size="0,0" pers-start="0,0" pers-end="0,0" locked="0" mesh="" flag=""/>
            <path id="shapePath2" d="M18.8782,32.7764 L20.8461,32.7764 L20.8461,30.4553 L25.7153,30.4553 L20.064,42.8175 C20.7704,43.1203 21.4264,43.3726 22.1075,43.6754 C24.1259,39.2602 26.1442,34.8704 28.1373,30.4553 L28.1373,28.5127 L18.8782,28.5127 L18.8782,32.7764 M31.6436,35.5768 L33.2835,36.3337 C33.7124,35.8543 34.4188,35.5264 35.3271,35.5264 C36.9922,35.5264 38.3798,36.4851 38.3798,38.3268 C38.3798,40.0928 37.1688,41.2786 35.4784,41.2786 C34.0908,41.2786 32.9303,40.4965 32.2239,39.1846 L30.5588,40.219 C31.467,42.1616 33.3592,43.3221 35.5794,43.3221 C38.2284,43.3221 40.5999,41.3795 40.5999,38.3268 C40.5999,35.602 38.5059,33.6089 35.8064,33.6089 C35.1505,33.6089 34.4945,33.7351 34.1665,33.836 L34.9739,30.4805 L39.616,30.4805 L39.616,28.5127 L33.3592,28.5127 L31.6436,35.5768 M48.1717,40.6731 L48.1717,35.0218 C48.2221,33.7856 49.1556,32.3475 50.5432,32.3475 C51.7542,32.3475 52.2083,33.0287 52.2083,34.4163 L52.2083,40.6731 L54.4789,40.6731 L54.4789,35.0218 C54.5294,33.7856 55.4629,32.3475 56.8505,32.3475 C58.0614,32.3475 58.5156,33.0287 58.5156,34.4163 L58.5156,40.6731 L60.7862,40.6731 L60.7862,34.1388 C60.7862,31.3131 59.4238,30.203 57.3803,30.203 C55.8161,30.203 54.8069,31.0356 54.1257,32.0952 C53.6211,30.7581 52.5111,30.203 51.073,30.203 C49.635,30.203 48.6258,30.9347 47.9446,31.8934 L47.8941,30.4805 L44.1603,30.4805 L44.1603,32.4232 L45.9011,32.4232 L45.9011,40.6731 L48.1717,40.6731 M68.5078,40.6731 L68.5078,35.0218 C68.5583,33.7856 69.4918,32.3475 70.8794,32.3475 C72.0904,32.3475 72.5445,33.0287 72.5445,34.4163 L72.5445,40.6731 L74.8151,40.6731 L74.8151,35.0218 C74.8656,33.7856 75.799,32.3475 77.1866,32.3475 C78.3976,32.3475 78.8517,33.0287 78.8517,34.4163 L78.8517,40.6731 L81.1224,40.6731 L81.1224,34.1388 C81.1224,31.3131 79.76,30.203 77.7164,30.203 C76.1522,30.203 75.1431,31.0356 74.4619,32.0952 C73.9573,30.7581 72.8472,30.203 71.4092,30.203 C69.9711,30.203 68.962,30.9347 68.2808,31.8934 L68.2303,30.4805 L64.4964,30.4805 L64.4964,32.4232 L66.2372,32.4232 L66.2372,40.6731 L68.5078,40.6731 Z" style="stroke:none;fill-rule:evenodd;fill:#c2996e;fill-opacity:1;"/>
        </g>
        <g id="Shape3">
            <desc shapeID="3" type="0" basicInfo-basicType="0" basicInfo-roundedRectRadius="12" basicInfo-polygonSides="6" basicInfo-starPoints="5" bounding="rect(-135.726,-28.2511,271.451,56.5021)" text="75mm studio" font-familyName="디자인하우스 OTF" font-pixelSize="86" font-bold="0" font-underline="0" font-alignment="1" strokeStyle="0" markerStart="0" markerEnd="0" shadowEnabled="0" shadowOffsetX="0" shadowOffsetY="2" shadowBlur="4" shadowOpacity="160" blurEnabled="0" blurRadius="4" transform="matrix(0.293361,0,0,0.293361,50.0001,60.183)" pers-center="0,0" pers-size="0,0" pers-start="0,0" pers-end="0,0" locked="0" mesh="" flag=""/>
            <path id="shapePath3" d="M14.3463,64.0809 C15.9357,64.4845 16.4403,64.5602 16.4655,65.2162 C16.4908,65.9478 15.9357,66.4776 14.5229,66.4776 C13.2614,66.4776 12,66.0235 11.117,65.3928 L10.1835,67.1588 C10.9151,67.7391 12.3784,68.4455 14.5733,68.4455 C17.9793,68.4455 18.7109,66.5028 18.7109,65.2414 C18.7109,62.8951 17.0206,62.5419 15.1032,62.0878 C13.3623,61.6841 12.8578,61.4318 12.8578,60.6749 C12.8578,59.8928 13.539,59.4892 14.6743,59.4892 C15.4059,59.4892 15.9609,59.6153 16.2889,59.7919 L16.2889,61.0534 L18.2568,61.0534 L18.2568,58.7071 C17.6008,58.1268 16.5412,57.6475 14.6995,57.6475 C12.2523,57.6475 10.6376,58.808 10.6376,60.7002 C10.6376,62.6933 11.7982,63.3997 14.3463,64.0809 M23.501,59.8928 L25.6202,59.8928 L25.6202,64.9386 C25.6202,67.3354 26.6294,68.4455 28.8243,68.4455 C29.6569,68.4455 30.4897,68.2689 31.0195,67.9661 C30.8682,67.3354 30.742,66.6542 30.5654,66.0235 C30.2624,66.2253 29.7073,66.3767 29.228,66.3767 C28.3197,66.3767 27.8908,65.8721 27.8908,64.535 L27.8908,59.8928 L30.742,59.8928 L30.742,57.9502 L27.8908,57.9502 L27.8908,54.4937 L25.6202,54.4937 L25.6202,57.9502 L23.501,57.9502 L23.501,59.8928 M45.8898,68.1427 L45.8898,57.9502 L43.6192,57.9502 L43.6192,63.652 C43.6192,64.9134 42.4839,66.301 40.8188,66.301 C39.5573,66.301 38.8257,65.7964 38.8004,64.2827 L38.8004,57.9502 L36.555,57.9502 L36.555,64.6359 C36.555,67.4363 38.3463,68.4455 40.5412,68.4455 C41.9541,68.4455 43.0894,67.7643 43.821,66.7299 L43.8715,68.1427 L45.8898,68.1427 M58.5393,51.8952 L58.5393,53.8378 L60.3053,53.8378 L60.3053,59.1107 C59.4728,58.0511 58.1609,57.6727 56.849,57.6727 C53.771,57.6727 51.6013,60.019 51.6013,63.0465 C51.6013,66.2253 53.7458,68.4455 56.8742,68.4455 C58.2366,68.4455 59.5737,67.9157 60.3053,66.9822 L60.4063,68.1427 L62.576,68.1427 L62.576,51.8952 L58.5393,51.8952 M60.4063,63.0465 C60.4063,64.7368 59.3466,66.4272 57.1265,66.4272 C55.2595,66.4272 53.8719,65.0648 53.8719,63.0212 C53.8719,61.0029 55.2091,59.691 57.1265,59.691 C59.3466,59.691 60.4063,61.2552 60.4063,63.0465 M72.0569,68.1427 L72.0569,57.9502 L68.0455,57.9502 L68.0455,59.8928 L69.7863,59.8928 L69.7863,68.1427 L72.0569,68.1427 M69.2312,54.519 C69.2312,55.3263 69.862,56.0328 70.7197,56.0328 C71.628,56.0328 72.2335,55.3768 72.2335,54.519 C72.2335,53.7873 71.6028,53.0305 70.7197,53.0305 C69.8115,53.0305 69.2312,53.6107 69.2312,54.519 M78.64,63.0465 C78.64,65.973 81.0115,68.4707 84.2156,68.4707 C87.445,68.4707 89.8165,65.973 89.8165,63.0465 C89.8165,60.1199 87.445,57.6727 84.2156,57.6727 C81.0115,57.6727 78.64,60.1199 78.64,63.0465 M80.9106,63.0465 C80.9106,60.9272 82.4496,59.7415 84.2156,59.7415 C85.9817,59.7415 87.5207,60.9272 87.5207,63.0465 C87.5207,65.0648 86.0069,66.3767 84.2156,66.3767 C82.3234,66.3767 80.9106,65.0648 80.9106,63.0465 Z" style="stroke:none;fill-rule:evenodd;fill:#c2996e;fill-opacity:1;"/>
        </g>
        <g id="Shape4">
            <desc shapeID="4" type="0" basicInfo-basicType="1" basicInfo-roundedRectRadius="12" basicInfo-polygonSides="6" basicInfo-starPoints="5" bounding="rect(-14.2763,-0.861824,28.5526,1.72365)" text="" font-familyName="디자인하우스 OTF" font-pixelSize="86" font-bold="0" font-underline="0" font-alignment="1" strokeStyle="0" markerStart="0" markerEnd="0" shadowEnabled="0" shadowOffsetX="0" shadowOffsetY="2" shadowBlur="4" shadowOpacity="160" blurEnabled="0" blurRadius="4" transform="matrix(1.00225,0,0,0.568713,47.956,20.384)" pers-center="0,0" pers-size="0,0" pers-start="0,0" pers-end="0,0" locked="0" mesh="" flag=""/>
            <path id="shapePath4" d="M33.6476,19.8939 L62.2643,19.8939 L62.2643,20.8741 L33.6476,20.8741 L33.6476,19.8939 Z" style="stroke:none;fill-rule:evenodd;fill:#c2996e;fill-opacity:1;"/>
        </g>
        <g id="Shape5">
            <desc shapeID="5" type="0" basicInfo-basicType="1" basicInfo-roundedRectRadius="12" basicInfo-polygonSides="6" basicInfo-starPoints="5" bounding="rect(-14.2763,-0.861824,28.5526,1.72365)" text="" font-familyName="디자인하우스 OTF" font-pixelSize="86" font-bold="0" font-underline="0" font-alignment="1" strokeStyle="0" markerStart="0" markerEnd="0" shadowEnabled="0" shadowOffsetX="0" shadowOffsetY="2" shadowBlur="4" shadowOpacity="160" blurEnabled="0" blurRadius="4" transform="matrix(1.00225,0,0,0.568713,47.956,77.2321)" pers-center="0,0" pers-size="0,0" pers-start="0,0" pers-end="0,0" locked="0" mesh="" flag=""/>
            <path id="shapePath5" d="M33.6476,76.742 L62.2643,76.742 L62.2643,77.7222 L33.6476,77.7222 L33.6476,76.742 Z" style="stroke:none;fill-rule:evenodd;fill:#c2996e;fill-opacity:1;"/>
        </g>
    </g>
</svg>
