<?xml version="1.0"?>
<svg version="1.1" xmlns="http://www.w3.org/2000/svg" xmlns:xlink="http://www.w3.org/1999/xlink" width="100" height="100">
    <desc iVinci="yes" version="4.6" gridStep="20" showGrid="no" snapToGrid="no" codePlatform="0"/>
    <g id="Layer1" name="Layer 1" opacity="1">
        <g id="Shape1">
            <desc shapeID="1" type="0" basicInfo-basicType="0" basicInfo-roundedRectRadius="12" basicInfo-polygonSides="6" basicInfo-starPoints="5" bounding="rect(-106.088,-25.843,212.176,51.6861)" text="75mm studio" font-familyName="디자인하우스 OTF" font-pixelSize="86" font-bold="0" font-underline="0" font-alignment="1" strokeStyle="0" markerStart="0" markerEnd="0" shadowEnabled="0" shadowOffsetX="0" shadowOffsetY="2" shadowBlur="4" shadowOpacity="160" blurEnabled="0" blurRadius="4" transform="matrix(0.293361,0,0,0.293361,50.0001,35.3165)" pers-center="0,0" pers-size="0,0" pers-start="0,0" pers-end="0,0" locked="0" mesh="" flag=""/>
            <path id="shapePath1" d="M18.8782,31.9989 L20.8461,31.9989 L20.8461,29.6778 L25.7153,29.6778 L20.064,42.04 C20.7704,42.3428 21.4264,42.5951 22.1075,42.8979 C24.1259,38.4827 26.1442,34.0929 28.1373,29.6778 L28.1373,27.7352 L18.8782,27.7352 L18.8782,31.9989 M31.6436,34.7993 L33.2835,35.5562 C33.7124,35.0768 34.4188,34.7489 35.3271,34.7489 C36.9922,34.7489 38.3798,35.7076 38.3798,37.5493 C38.3798,39.3153 37.1688,40.5011 35.4784,40.5011 C34.0908,40.5011 32.9303,39.719 32.2239,38.4071 L30.5588,39.4415 C31.467,41.3841 33.3592,42.5446 35.5794,42.5446 C38.2284,42.5446 40.5999,40.602 40.5999,37.5493 C40.5999,34.8245 38.5059,32.8314 35.8064,32.8314 C35.1505,32.8314 34.4945,32.9576 34.1665,33.0585 L34.9739,29.703 L39.616,29.703 L39.616,27.7352 L33.3592,27.7352 L31.6436,34.7993 M48.1717,39.8956 L48.1717,34.2443 C48.2221,33.0081 49.1556,31.57 50.5432,31.57 C51.7542,31.57 52.2083,32.2512 52.2083,33.6388 L52.2083,39.8956 L54.4789,39.8956 L54.4789,34.2443 C54.5294,33.0081 55.4629,31.57 56.8505,31.57 C58.0614,31.57 58.5156,32.2512 58.5156,33.6388 L58.5156,39.8956 L60.7862,39.8956 L60.7862,33.3613 C60.7862,30.5356 59.4238,29.4255 57.3803,29.4255 C55.8161,29.4255 54.8069,30.2581 54.1257,31.3177 C53.6211,29.9806 52.5111,29.4255 51.073,29.4255 C49.635,29.4255 48.6258,30.1572 47.9446,31.1159 L47.8941,29.703 L44.1603,29.703 L44.1603,31.6457 L45.9011,31.6457 L45.9011,39.8956 L48.1717,39.8956 M68.5078,39.8956 L68.5078,34.2443 C68.5583,33.0081 69.4918,31.57 70.8794,31.57 C72.0904,31.57 72.5445,32.2512 72.5445,33.6388 L72.5445,39.8956 L74.8151,39.8956 L74.8151,34.2443 C74.8656,33.0081 75.799,31.57 77.1866,31.57 C78.3976,31.57 78.8517,32.2512 78.8517,33.6388 L78.8517,39.8956 L81.1224,39.8956 L81.1224,33.3613 C81.1224,30.5356 79.76,29.4255 77.7164,29.4255 C76.1522,29.4255 75.1431,30.2581 74.4619,31.3177 C73.9573,29.9806 72.8472,29.4255 71.4092,29.4255 C69.9711,29.4255 68.962,30.1572 68.2808,31.1159 L68.2303,29.703 L64.4964,29.703 L64.4964,31.6457 L66.2372,31.6457 L66.2372,39.8956 L68.5078,39.8956 Z" style="stroke:none;fill-rule:evenodd;fill:#c2996e;fill-opacity:1;"/>
        </g>
        <g id="Shape2">
            <desc shapeID="2" type="0" basicInfo-basicType="0" basicInfo-roundedRectRadius="12" basicInfo-polygonSides="6" basicInfo-starPoints="5" bounding="rect(-135.726,-28.2512,271.451,56.5023)" text="75mm studio" font-familyName="디자인하우스 OTF" font-pixelSize="86" font-bold="0" font-underline="0" font-alignment="1" strokeStyle="0" markerStart="0" markerEnd="0" shadowEnabled="0" shadowOffsetX="0" shadowOffsetY="2" shadowBlur="4" shadowOpacity="160" blurEnabled="0" blurRadius="4" transform="matrix(0.293361,0,0,0.293361,50.0001,59.4054)" pers-center="0,0" pers-size="0,0" pers-start="0,0" pers-end="0,0" locked="0" mesh="" flag=""/>
            <path id="shapePath2" d="M14.3463,63.3034 C15.9357,63.707 16.4403,63.7827 16.4655,64.4387 C16.4908,65.1703 15.9357,65.7001 14.5229,65.7001 C13.2614,65.7001 12,65.246 11.117,64.6153 L10.1835,66.3813 C10.9151,66.9616 12.3784,67.668 14.5733,67.668 C17.9793,67.668 18.7109,65.7253 18.7109,64.4639 C18.7109,62.1176 17.0206,61.7644 15.1032,61.3103 C13.3623,60.9066 12.8578,60.6543 12.8578,59.8974 C12.8578,59.1153 13.539,58.7117 14.6743,58.7117 C15.4059,58.7117 15.9609,58.8378 16.2889,59.0144 L16.2889,60.2759 L18.2568,60.2759 L18.2568,57.9296 C17.6008,57.3493 16.5412,56.87 14.6995,56.87 C12.2523,56.87 10.6376,58.0305 10.6376,59.9227 C10.6376,61.9158 11.7982,62.6222 14.3463,63.3034 M23.501,59.1153 L25.6202,59.1153 L25.6202,64.1611 C25.6202,66.5579 26.6294,67.668 28.8243,67.668 C29.6569,67.668 30.4897,67.4914 31.0195,67.1886 C30.8682,66.5579 30.742,65.8767 30.5654,65.246 C30.2624,65.4478 29.7073,65.5992 29.228,65.5992 C28.3197,65.5992 27.8908,65.0946 27.8908,63.7575 L27.8908,59.1153 L30.742,59.1153 L30.742,57.1727 L27.8908,57.1727 L27.8908,53.7162 L25.6202,53.7162 L25.6202,57.1727 L23.501,57.1727 L23.501,59.1153 M45.8898,67.3652 L45.8898,57.1727 L43.6192,57.1727 L43.6192,62.8745 C43.6192,64.1359 42.4839,65.5235 40.8188,65.5235 C39.5573,65.5235 38.8257,65.0189 38.8004,63.5052 L38.8004,57.1727 L36.555,57.1727 L36.555,63.8584 C36.555,66.6588 38.3463,67.668 40.5412,67.668 C41.9541,67.668 43.0894,66.9868 43.821,65.9524 L43.8715,67.3652 L45.8898,67.3652 M58.5393,51.1177 L58.5393,53.0603 L60.3053,53.0603 L60.3053,58.3332 C59.4728,57.2736 58.1609,56.8952 56.849,56.8952 C53.771,56.8952 51.6013,59.2415 51.6013,62.269 C51.6013,65.4478 53.7458,67.668 56.8742,67.668 C58.2366,67.668 59.5737,67.1382 60.3053,66.2047 L60.4063,67.3652 L62.576,67.3652 L62.576,51.1177 L58.5393,51.1177 M60.4063,62.269 C60.4063,63.9593 59.3466,65.6497 57.1265,65.6497 C55.2595,65.6497 53.8719,64.2873 53.8719,62.2437 C53.8719,60.2254 55.2091,58.9135 57.1265,58.9135 C59.3466,58.9135 60.4063,60.4777 60.4063,62.269 M72.0569,67.3652 L72.0569,57.1727 L68.0455,57.1727 L68.0455,59.1153 L69.7863,59.1153 L69.7863,67.3652 L72.0569,67.3652 M69.2312,53.7415 C69.2312,54.5488 69.862,55.2553 70.7197,55.2553 C71.628,55.2553 72.2335,54.5993 72.2335,53.7415 C72.2335,53.0098 71.6028,52.253 70.7197,52.253 C69.8115,52.253 69.2312,52.8332 69.2312,53.7415 M78.64,62.269 C78.64,65.1955 81.0115,67.6932 84.2156,67.6932 C87.445,67.6932 89.8165,65.1955 89.8165,62.269 C89.8165,59.3424 87.445,56.8952 84.2156,56.8952 C81.0115,56.8952 78.64,59.3424 78.64,62.269 M80.9106,62.269 C80.9106,60.1497 82.4496,58.964 84.2156,58.964 C85.9817,58.964 87.5207,60.1497 87.5207,62.269 C87.5207,64.2873 86.0069,65.5992 84.2156,65.5992 C82.3234,65.5992 80.9106,64.2873 80.9106,62.269 Z" style="stroke:none;fill-rule:evenodd;fill:#c2996e;fill-opacity:1;"/>
        </g>
    </g>
</svg>
