<?xml version="1.0"?>
<svg version="1.1" xmlns="http://www.w3.org/2000/svg" xmlns:xlink="http://www.w3.org/1999/xlink" width="100" height="100">
    <desc iVinci="yes" version="4.6" gridStep="20" showGrid="no" snapToGrid="no" codePlatform="0"/>
    <g id="Layer1" name="Layer 1" opacity="1">
        <g id="Shape1">
            <desc shapeID="1" type="0" basicInfo-basicType="0" basicInfo-roundedRectRadius="12" basicInfo-polygonSides="6" basicInfo-starPoints="5" bounding="rect(-50,-50.0665,100,100.133)" text="" font-familyName="" font-pixelSize="20" font-bold="0" font-underline="0" font-alignment="1" strokeStyle="0" markerStart="0" markerEnd="0" shadowEnabled="0" shadowOffsetX="0" shadowOffsetY="2" shadowBlur="4" shadowOpacity="160" blurEnabled="0" blurRadius="4" transform="matrix(1,0,0,1,50,50.0665)" pers-center="0,0" pers-size="0,0" pers-start="0,0" pers-end="0,0" locked="0" mesh="" flag=""/>
            <path id="shapePath1" d="M0,12.0035 C0,5.37417 5.38132,7.62939e-06 12.0195,7.62939e-06 L87.9805,7.62939e-06 C94.6187,7.62939e-06 100,5.37417 100,12.0035 L100,88.1291 C100,94.7585 94.6187,100.133 87.9805,100.133 L12.0195,100.133 C5.38132,100.133 0,94.7585 0,88.1291 L0,12.0035 Z" style="stroke:none;fill-rule:evenodd;fill:#333338;fill-opacity:1;"/>
        </g>
        <g id="Shape2">
            <desc shapeID="2" type="0" basicInfo-basicType="0" basicInfo-roundedRectRadius="12" basicInfo-polygonSides="6" basicInfo-starPoints="5" bounding="rect(-31.1221,-7.58135,62.2442,15.1627)" text="" font-familyName="" font-pixelSize="20" font-bold="0" font-underline="0" font-alignment="1" strokeStyle="0" markerStart="0" markerEnd="0" shadowEnabled="0" shadowOffsetX="0" shadowOffsetY="2" shadowBlur="4" shadowOpacity="160" blurEnabled="0" blurRadius="4" transform="matrix(0.884819,0,0,0.884819,50.0003,38.7504)" pers-center="0,0" pers-size="0,0" pers-start="0,0" pers-end="0,0" locked="0" mesh="" flag=""/>
            <path id="shapePath2" d="M22.4628,35.8149 L24.2041,35.8149 L24.2041,33.7612 L28.5124,33.7612 L23.5121,44.6995 C24.1371,44.9674 24.7175,45.1906 25.3202,45.4585 C27.1061,41.5519 28.8919,37.6677 30.6555,33.7612 L30.6555,32.0423 L22.4628,32.0423 L22.4628,35.8149 M33.7579,38.2928 L35.2089,38.9625 C35.5884,38.5383 36.2135,38.2482 37.0171,38.2482 C38.4905,38.2482 39.7182,39.0964 39.7182,40.726 C39.7182,42.2886 38.6467,43.3378 37.151,43.3378 C35.9232,43.3378 34.8964,42.6458 34.2714,41.485 L32.7981,42.4003 C33.6017,44.1191 35.2759,45.1459 37.2404,45.1459 C39.5843,45.1459 41.6826,43.4271 41.6826,40.726 C41.6826,38.315 39.8298,36.5515 37.4412,36.5515 C36.8609,36.5515 36.2804,36.6632 35.9902,36.7525 L36.7046,33.7834 L40.812,33.7834 L40.812,32.0423 L35.2759,32.0423 L33.7579,38.2928 M48.3823,42.8021 L48.3823,37.8017 C48.4269,36.7079 49.2529,35.4354 50.4806,35.4354 C51.5521,35.4354 51.9539,36.0381 51.9539,37.2659 L51.9539,42.8021 L53.963,42.8021 L53.963,37.8017 C54.0077,36.7079 54.8337,35.4354 56.0614,35.4354 C57.1329,35.4354 57.5348,36.0381 57.5348,37.2659 L57.5348,42.8021 L59.5438,42.8021 L59.5438,37.0204 C59.5438,34.5201 58.3384,33.5379 56.5302,33.5379 C55.1462,33.5379 54.2532,34.2746 53.6505,35.2122 C53.204,34.0291 52.2219,33.5379 50.9494,33.5379 C49.677,33.5379 48.7841,34.1853 48.1813,35.0336 L48.1367,33.7834 L44.8329,33.7834 L44.8329,35.5024 L46.3732,35.5024 L46.3732,42.8021 L48.3823,42.8021 M66.376,42.8021 L66.376,37.8017 C66.4207,36.7079 67.2467,35.4354 68.4745,35.4354 C69.546,35.4354 69.9478,36.0381 69.9478,37.2659 L69.9478,42.8021 L71.9569,42.8021 L71.9569,37.8017 C72.0015,36.7079 72.8274,35.4354 74.0552,35.4354 C75.1267,35.4354 75.5285,36.0381 75.5285,37.2659 L75.5285,42.8021 L77.5377,42.8021 L77.5377,37.0204 C77.5377,34.5201 76.3322,33.5379 74.524,33.5379 C73.1399,33.5379 72.2471,34.2746 71.6443,35.2122 C71.1979,34.0291 70.2156,33.5379 68.9433,33.5379 C67.6708,33.5379 66.7779,34.1853 66.1752,35.0336 L66.1305,33.7834 L62.8267,33.7834 L62.8267,35.5024 L64.367,35.5024 L64.367,42.8021 L66.376,42.8021 Z" style="stroke:none;fill-rule:evenodd;fill:#c2996e;fill-opacity:1;"/>
        </g>
        <g id="Shape3">
            <desc shapeID="3" type="0" basicInfo-basicType="0" basicInfo-roundedRectRadius="12" basicInfo-polygonSides="6" basicInfo-starPoints="5" bounding="rect(-39.8165,-8.28775,79.633,16.5755)" text="" font-familyName="" font-pixelSize="20" font-bold="0" font-underline="0" font-alignment="1" strokeStyle="0" markerStart="0" markerEnd="0" shadowEnabled="0" shadowOffsetX="0" shadowOffsetY="2" shadowBlur="4" shadowOpacity="160" blurEnabled="0" blurRadius="4" transform="matrix(0.884819,0,0,0.884819,50,60.0647)" pers-center="0,0" pers-size="0,0" pers-start="0,0" pers-end="0,0" locked="0" mesh="" flag=""/>
            <path id="shapePath3" d="M18.4529,63.5137 C19.8593,63.8708 20.3057,63.9378 20.328,64.5182 C20.3504,65.1656 19.8593,65.6343 18.6092,65.6343 C17.493,65.6343 16.3769,65.2326 15.5956,64.6745 L14.7696,66.2371 C15.417,66.7505 16.7117,67.3756 18.6538,67.3756 C21.6675,67.3756 22.3148,65.6566 22.3148,64.5405 C22.3148,62.4645 20.8192,62.152 19.1227,61.7502 C17.5823,61.393 17.1359,61.1697 17.1359,60.5 C17.1359,59.808 17.7386,59.4509 18.7432,59.4509 C19.3905,59.4509 19.8816,59.5625 20.1718,59.7187 L20.1718,60.8349 L21.913,60.8349 L21.913,58.7589 C21.3326,58.2454 20.395,57.8213 18.7655,57.8213 C16.6001,57.8213 15.1714,58.8481 15.1714,60.5224 C15.1714,62.2859 16.1983,62.911 18.4529,63.5137 M26.5532,59.808 L28.4283,59.808 L28.4283,64.2726 C28.4283,66.3933 29.3213,67.3756 31.2633,67.3756 C32,67.3756 32.7369,67.2193 33.2057,66.9514 C33.0718,66.3933 32.9602,65.7906 32.8039,65.2326 C32.5358,65.4111 32.0446,65.5451 31.6205,65.5451 C30.8169,65.5451 30.4374,65.0986 30.4374,63.9155 L30.4374,59.808 L32.9602,59.808 L32.9602,58.0891 L30.4374,58.0891 L30.4374,55.0308 L28.4283,55.0308 L28.4283,58.0891 L26.5532,58.0891 L26.5532,59.808 M46.3632,67.1077 L46.3632,58.0891 L44.3541,58.0891 L44.3541,63.1342 C44.3541,64.2503 43.3496,65.4781 41.8763,65.4781 C40.7601,65.4781 40.1128,65.0316 40.0904,63.6923 L40.0904,58.0891 L38.1036,58.0891 L38.1036,64.0048 C38.1036,66.4826 39.6886,67.3756 41.6307,67.3756 C42.8808,67.3756 43.8854,66.7728 44.5327,65.8576 L44.5774,67.1077 L46.3632,67.1077 M57.5557,52.7316 L57.5557,54.4504 L59.1183,54.4504 L59.1183,59.116 C58.3817,58.1784 57.2209,57.8436 56.0601,57.8436 C53.3366,57.8436 51.4169,59.9197 51.4169,62.5984 C51.4169,65.4111 53.3144,67.3756 56.0824,67.3756 C57.2879,67.3756 58.471,66.9068 59.1183,66.0808 L59.2077,67.1077 L61.1275,67.1077 L61.1275,52.7316 L57.5557,52.7316 M59.2077,62.5984 C59.2077,64.0941 58.27,65.5898 56.3057,65.5898 C54.6537,65.5898 53.4259,64.3843 53.4259,62.5761 C53.4259,60.7902 54.6091,59.6294 56.3057,59.6294 C58.27,59.6294 59.2077,61.0135 59.2077,62.5984 M69.5163,67.1077 L69.5163,58.0891 L65.967,58.0891 L65.967,59.808 L67.5073,59.808 L67.5073,67.1077 L69.5163,67.1077 M67.0161,55.0532 C67.0161,55.7675 67.5743,56.3926 68.3332,56.3926 C69.1369,56.3926 69.6726,55.8122 69.6726,55.0532 C69.6726,54.4057 69.1146,53.7361 68.3332,53.7361 C67.5296,53.7361 67.0161,54.2495 67.0161,55.0532 M75.3412,62.5984 C75.3412,65.1879 77.4395,67.3979 80.2746,67.3979 C83.132,67.3979 85.2304,65.1879 85.2304,62.5984 C85.2304,60.0089 83.132,57.8436 80.2746,57.8436 C77.4395,57.8436 75.3412,60.0089 75.3412,62.5984 M77.3503,62.5984 C77.3503,60.7233 78.712,59.6741 80.2746,59.6741 C81.8373,59.6741 83.199,60.7233 83.199,62.5984 C83.199,64.3843 81.8596,65.5451 80.2746,65.5451 C78.6003,65.5451 77.3503,64.3843 77.3503,62.5984 Z" style="stroke:none;fill-rule:evenodd;fill:#c2996e;fill-opacity:1;"/>
        </g>
        <g id="Shape4">
            <desc shapeID="4" type="0" basicInfo-basicType="0" basicInfo-roundedRectRadius="12" basicInfo-polygonSides="6" basicInfo-starPoints="5" bounding="rect(-14.3083,-0.490099,28.6167,0.9802)" text="" font-familyName="" font-pixelSize="20" font-bold="0" font-underline="0" font-alignment="1" strokeStyle="0" markerStart="0" markerEnd="0" shadowEnabled="0" shadowOffsetX="0" shadowOffsetY="2" shadowBlur="4" shadowOpacity="160" blurEnabled="0" blurRadius="4" transform="matrix(0.884819,0,0,0.884819,48.1914,24.8499)" pers-center="0,0" pers-size="0,0" pers-start="0,0" pers-end="0,0" locked="0" mesh="" flag=""/>
            <path id="shapePath4" d="M35.5311,24.4162 L60.8517,24.4162 L60.8517,25.2835 L35.5311,25.2835 L35.5311,24.4162 Z" style="stroke:none;fill-rule:evenodd;fill:#c2996e;fill-opacity:1;"/>
        </g>
        <g id="Shape5">
            <desc shapeID="5" type="0" basicInfo-basicType="0" basicInfo-roundedRectRadius="12" basicInfo-polygonSides="6" basicInfo-starPoints="5" bounding="rect(-14.3083,-0.490105,28.6167,0.980202)" text="" font-familyName="" font-pixelSize="20" font-bold="0" font-underline="0" font-alignment="1" strokeStyle="0" markerStart="0" markerEnd="0" shadowEnabled="0" shadowOffsetX="0" shadowOffsetY="2" shadowBlur="4" shadowOpacity="160" blurEnabled="0" blurRadius="4" transform="matrix(0.884819,0,0,0.884819,48.1914,75.1501)" pers-center="0,0" pers-size="0,0" pers-start="0,0" pers-end="0,0" locked="0" mesh="" flag=""/>
            <path id="shapePath5" d="M35.5311,74.7165 L60.8517,74.7165 L60.8517,75.5838 L35.5311,75.5838 L35.5311,74.7165 Z" style="stroke:none;fill-rule:evenodd;fill:#c2996e;fill-opacity:1;"/>
        </g>
    </g>
</svg>
